<svg width="262" height="233" viewBox="0 0 262 233" fill="none" xmlns="http://www.w3.org/2000/svg">
    <mask id="path-1-outside-1_604_2" maskUnits="userSpaceOnUse" x="0" y="0" width="262" height="233" fill="black">
        <rect fill="white" width="262" height="233"/>
        <path fill-rule="evenodd" clip-rule="evenodd"
              d="M255.982 28.1241L255.935 27.2728C255.935 26.8944 255.887 26.2796 255.793 25.381C255.752 24.8902 255.675 24.3995 255.594 23.8782L255.556 23.631V23.5837C255.414 22.6378 255.177 21.6919 254.845 20.746L254.324 19.5164C254.087 19.0434 253.85 18.5705 253.566 18.1448C252.997 17.2462 252.286 16.4422 251.433 15.78C250.296 14.8341 248.922 14.172 247.453 13.8409C246.884 13.6991 246.316 13.6518 245.747 13.6045L245.084 13.5572H243.947C243.236 13.5572 242.525 13.6518 241.814 13.7464C241.104 13.8409 240.345 14.0301 239.635 14.2193L238.971 14.4085C238.118 14.6923 237.313 15.0233 236.555 15.4017C233.238 17.057 230.537 19.5637 228.547 21.5501C227.9 22.1953 227.254 22.8846 226.622 23.5579C226.329 23.8712 226.037 24.1821 225.751 24.4823C225.056 25.2391 224.319 25.9959 223.582 26.7527C223.213 27.131 222.845 27.5093 222.482 27.8876C220.586 29.7794 218.549 31.482 216.369 32.9955C214.284 34.4143 212.057 35.5494 209.688 36.4007L205.092 38.1506L204.76 38.2925C204.239 38.529 203.718 38.7655 203.244 39.0019L202.486 39.3803L201.964 39.6168C201.348 39.9006 200.732 40.2316 200.164 40.5627C197.652 41.9342 195.236 43.495 192.914 45.1976L192.867 45.2449L192.061 45.8597C191.492 46.2854 190.924 46.711 190.403 47.184L188.081 49.1704L186.47 50.6838C183.721 53.2378 181.352 56.1228 179.41 59.2915C179.291 59.4807 179.173 59.6817 179.054 59.8827C178.936 60.0837 178.817 60.2848 178.699 60.4739L178.13 60.2374C172.823 58.2983 167.421 56.7376 161.925 55.5079C150.695 53.0486 139.18 52.1027 127.666 52.8121C126.766 52.8594 125.913 52.9067 125.06 53.0013C124.681 53.0486 124.302 53.0959 123.923 53.0959L122.501 53.2378L121.98 53.2851L120.322 53.4743C119.563 53.5688 118.805 53.6634 118.142 53.758L117.052 53.8999C114.92 54.231 113.451 54.4674 112.408 54.7039C109.092 55.3188 105.822 56.312 102.695 57.6362C101.605 55.2242 100.231 52.954 98.5723 50.873C97.4824 49.4542 96.2978 48.1299 95.0185 46.8529C94.1656 46.0016 93.2652 45.1503 92.2228 44.2517L91.5594 43.7315C91.3916 43.6059 91.2332 43.4803 91.0798 43.3588C90.8868 43.2058 90.7018 43.0592 90.517 42.9274L90.1379 42.6437L89.9484 42.5005C89.6045 42.2399 89.1938 41.9285 88.7164 41.6505L88.4321 41.4613C87.9582 41.1302 87.437 40.7992 86.821 40.4208L86.7736 40.3735C86.6224 40.2854 86.4644 40.1907 86.2997 40.0919C85.8454 39.8193 85.34 39.5161 84.7835 39.2384L83.8358 38.7655C83.5515 38.6236 83.2672 38.4817 82.9829 38.3871L81.7035 37.8196L79.3817 36.921L76.0648 35.8332L75.2119 35.5494C74.2642 35.2656 73.4113 34.9819 72.6532 34.6981H72.6058L71.8476 34.4143L70.8526 34.036L69.1467 33.2319C67.0144 32.286 64.9769 31.151 63.0342 29.7794L62.9868 29.7321C60.9019 28.2187 58.9592 26.6106 57.0638 24.8607L55.2632 23.2527C54.8523 22.881 54.4378 22.5023 54.0199 22.1204C52.896 21.0935 51.7464 20.0431 50.5722 19.0434C48.1082 16.9151 45.7864 15.1652 43.6067 13.6518C41.2849 11.9491 38.8209 10.4357 36.2622 9.15873C34.9354 8.4966 33.6087 7.88177 32.2345 7.40882L32.0924 7.36152C30.6235 6.84127 29.1072 6.46291 27.5435 6.22644C25.8377 5.94267 24.1318 5.94267 22.426 6.13185C20.6728 6.32103 18.967 6.84127 17.4033 7.5507L17.3085 7.598C15.9344 8.26013 14.655 9.15874 13.4704 10.1992L13.3757 10.2938C12.9492 10.7195 12.5227 11.1451 12.0963 11.6181L11.812 11.9964C11.5277 12.3275 11.2908 12.6586 11.0538 12.9896C10.2483 14.1247 9.53755 15.3544 8.96894 16.6314L8.54248 17.5773C8.4951 17.6955 8.45956 17.8019 8.42994 17.8906C8.40033 17.9793 8.37664 18.0502 8.35294 18.0975C8.32366 18.156 8.25818 18.3409 8.16769 18.5964C8.11176 18.7544 8.04627 18.9393 7.97387 19.138L7.92649 19.2799C7.54742 20.3677 7.26311 21.5028 7.02619 22.6378C6.6945 24.2932 6.4102 25.9958 6.22066 27.6984L6.17328 28.1714C6.14885 28.3421 6.13701 28.5253 6.12478 28.7147C6.1133 28.8926 6.10146 29.0759 6.07851 29.2592L6.03112 30.7726C5.98374 31.9077 5.98374 32.9955 6.07851 34.1306L6.12589 34.7927C6.4102 37.6304 7.02619 40.4208 7.92649 43.1639C8.70904 45.4153 9.67046 47.622 10.5935 49.7407L10.6748 49.9271L10.9591 50.6365C12.0015 52.954 12.8544 55.2242 13.66 57.4943L13.9443 58.2983C14.0455 58.6352 14.1528 58.96 14.2575 59.2771C14.4468 59.8505 14.6278 60.3987 14.7498 60.9469V61.0415L14.9867 61.7982C15.0341 61.9637 15.0815 62.1411 15.1289 62.3184C15.1763 62.4958 15.2236 62.6731 15.271 62.8387L15.7449 64.8251L15.7922 64.967C15.9818 65.7237 16.1713 66.6223 16.3135 67.5682L16.503 68.7033L16.6925 69.6492C16.6925 69.7201 16.7044 69.7911 16.7162 69.862C16.7281 69.9329 16.7399 70.0039 16.7399 70.0748L17.4033 74.757V74.8989C17.427 74.9935 17.4388 75.0999 17.4507 75.2064C17.4625 75.3128 17.4744 75.4192 17.4981 75.5138C17.5241 75.6698 17.5502 75.833 17.5772 76.0023C17.6485 76.449 17.7267 76.9385 17.8298 77.4529L17.9719 78.115C18.0667 78.6825 18.2088 79.2974 18.3984 79.9595C18.4458 80.196 18.4931 80.4325 18.5879 80.6216C18.73 81.1891 18.8722 81.7093 19.0143 82.2295C19.962 85.3982 21.194 88.4726 22.7103 91.4049C23.3722 92.7262 24.0341 93.8672 24.6644 94.9539L24.9374 95.425C25.1283 95.7517 25.3349 96.0784 25.5301 96.387C25.674 96.6146 25.8118 96.8323 25.9324 97.033L27.3066 99.114C28.6807 101.148 30.197 103.087 31.8081 104.931C33.0401 106.397 34.0825 107.533 35.0776 108.526L35.125 108.573C37.2099 110.749 39.5317 112.688 41.9957 114.438L41.7959 115.032C41.5325 115.813 41.2751 116.577 41.048 117.37C40.1003 120.775 39.4843 124.275 39.2474 127.775L39.2 128.106L39.1508 128.75C39.0479 130.083 38.887 132.166 38.7262 135.579C38.5366 139.599 38.5366 145.983 38.8209 151.281C38.9631 153.74 39.1526 156.247 39.3895 158.327C39.4193 158.743 39.4677 159.121 39.5113 159.462C39.5372 159.665 39.5614 159.854 39.5791 160.03L40.0529 163.766V163.814C40.2424 165.185 40.6215 167.361 41.1427 169.962C41.664 172.563 42.3273 175.212 43.0855 177.718C43.9858 180.793 44.9335 183.299 45.5495 184.907C46.4971 187.319 47.587 189.684 48.819 192.002C49.0917 192.546 49.3645 192.995 49.6109 193.4L49.7666 193.657C49.814 193.752 49.8733 193.846 49.9325 193.941C49.9917 194.035 50.051 194.13 50.0983 194.224L51.1408 195.974L51.1882 196.069C53.2731 199.38 55.8792 202.312 58.9592 204.771C60.1911 205.765 61.5179 206.616 62.892 207.42C62.9631 207.514 63.0223 207.609 63.0815 207.703C63.1407 207.798 63.2 207.893 63.2711 207.987C64.2662 209.406 65.356 210.73 66.5406 211.913C67.7252 213.048 68.9572 214.136 70.284 215.082L70.3787 215.129C71.6581 216.028 73.0322 216.832 74.4538 217.541C79.1922 219.906 84.594 221.419 90.896 222.081C93.4548 222.365 96.0609 222.507 98.667 222.507H98.7618C101.273 222.507 103.832 222.318 106.343 222.034H106.391C108.76 221.75 111.176 221.325 113.498 220.757C114.195 220.611 114.834 220.436 115.417 220.277C115.588 220.23 115.754 220.185 115.915 220.142L116.768 219.906L117.052 219.811L117.858 219.575C118.616 219.338 119.374 219.102 120.227 218.818C120.843 218.581 121.459 218.345 122.122 218.109C122.501 218.44 122.833 218.723 123.259 219.054L123.307 219.102C125.723 220.994 128.377 222.507 131.22 223.595C131.789 223.831 132.452 224.068 133.494 224.399C133.755 224.493 134.016 224.576 134.276 224.659C134.537 224.742 134.797 224.824 135.058 224.919L135.295 225.014C135.773 225.163 136.271 225.293 136.787 225.429C137.088 225.508 137.397 225.589 137.712 225.676C138.205 225.817 138.673 225.905 139.173 226C139.345 226.032 139.52 226.065 139.702 226.101L140.507 226.243L140.697 226.291C141.076 226.338 141.455 226.385 141.834 226.48L143.066 226.669L145.483 226.905H145.625C145.828 226.905 146.017 226.919 146.193 226.932C146.345 226.943 146.488 226.953 146.62 226.953L148.326 227H149.747C150.221 227 150.884 227 151.642 226.953C153.68 226.811 155.67 226.574 157.66 226.149L159.271 225.818L159.413 225.77C159.84 225.676 160.219 225.581 160.598 225.439L160.977 225.345L162.02 225.061L163.82 224.493L164.436 224.304C164.616 224.233 164.795 224.168 164.977 224.102C165.275 223.994 165.581 223.883 165.905 223.737L167.137 223.216C167.99 222.885 168.795 222.46 169.601 222.034C170.217 221.703 170.833 221.372 171.402 221.041L171.591 220.946C172.728 220.237 173.818 219.433 174.861 218.581L175.145 218.345C175.287 218.203 175.441 218.073 175.595 217.943C175.749 217.813 175.903 217.683 176.045 217.541C177.751 218.203 179.457 218.771 181.163 219.244C186.091 220.71 191.208 221.608 196.326 221.939C202.012 222.318 207.745 221.703 213.242 220.142C216.274 219.244 219.165 217.919 221.818 216.217C224.709 214.372 227.22 212.007 229.21 209.264L229.258 209.217C230.253 207.798 231.106 206.332 231.864 204.771C233.238 201.744 234.043 198.528 234.328 195.265C234.47 193.988 234.517 192.758 234.47 191.481V190.488C234.423 189.827 234.375 189.307 234.328 188.787C234.328 188.686 234.314 188.583 234.301 188.489C234.291 188.407 234.28 188.331 234.28 188.265L234.138 186.941L233.854 185.617C233.83 185.522 233.818 185.439 233.806 185.357C233.795 185.274 233.783 185.191 233.759 185.097C233.664 184.624 233.522 184.009 233.333 183.347L232.764 181.502C232.622 180.982 232.432 180.509 232.195 180.036L231.437 178.239C231.248 177.813 231.106 177.529 230.963 177.246L230.537 176.489C230.443 176.319 230.356 176.15 230.27 175.983C230.142 175.732 230.016 175.487 229.874 175.259L228.736 173.415L228.642 173.273C227.741 171.901 226.794 170.672 225.846 169.442L227.125 167.597C229.115 164.381 230.632 160.929 231.674 157.287L231.864 156.578C232.859 152.889 233.617 149.152 234.091 145.369V145.274L234.186 144.47C234.28 143.855 234.375 143.193 234.422 142.484L234.659 139.788L234.707 138.984C234.802 137.234 234.896 135.437 234.849 133.45C234.802 129.052 234.422 124.653 233.712 120.302C233.238 117.512 232.574 114.721 231.769 111.978C232.622 111.174 233.427 110.323 234.186 109.424C236.602 106.492 238.592 103.276 240.061 99.8235C241.009 97.7425 242.43 94.3372 244.326 88.9456C246.221 83.5539 248.069 77.2637 249.68 70.8789C251.291 64.494 252.76 57.6835 253.803 51.346C254.798 45.5287 255.508 39.806 255.84 35.3129C255.982 32.9009 256.03 30.5361 255.982 28.1241Z"/>
    </mask>
    <path fill-rule="evenodd" clip-rule="evenodd"
          d="M255.982 28.1241L255.935 27.2728C255.935 26.8944 255.887 26.2796 255.793 25.381C255.752 24.8902 255.675 24.3995 255.594 23.8782L255.556 23.631V23.5837C255.414 22.6378 255.177 21.6919 254.845 20.746L254.324 19.5164C254.087 19.0434 253.85 18.5705 253.566 18.1448C252.997 17.2462 252.286 16.4422 251.433 15.78C250.296 14.8341 248.922 14.172 247.453 13.8409C246.884 13.6991 246.316 13.6518 245.747 13.6045L245.084 13.5572H243.947C243.236 13.5572 242.525 13.6518 241.814 13.7464C241.104 13.8409 240.345 14.0301 239.635 14.2193L238.971 14.4085C238.118 14.6923 237.313 15.0233 236.555 15.4017C233.238 17.057 230.537 19.5637 228.547 21.5501C227.9 22.1953 227.254 22.8846 226.622 23.5579C226.329 23.8712 226.037 24.1821 225.751 24.4823C225.056 25.2391 224.319 25.9959 223.582 26.7527C223.213 27.131 222.845 27.5093 222.482 27.8876C220.586 29.7794 218.549 31.482 216.369 32.9955C214.284 34.4143 212.057 35.5494 209.688 36.4007L205.092 38.1506L204.76 38.2925C204.239 38.529 203.718 38.7655 203.244 39.0019L202.486 39.3803L201.964 39.6168C201.348 39.9006 200.732 40.2316 200.164 40.5627C197.652 41.9342 195.236 43.495 192.914 45.1976L192.867 45.2449L192.061 45.8597C191.492 46.2854 190.924 46.711 190.403 47.184L188.081 49.1704L186.47 50.6838C183.721 53.2378 181.352 56.1228 179.41 59.2915C179.291 59.4807 179.173 59.6817 179.054 59.8827C178.936 60.0837 178.817 60.2848 178.699 60.4739L178.13 60.2374C172.823 58.2983 167.421 56.7376 161.925 55.5079C150.695 53.0486 139.18 52.1027 127.666 52.8121C126.766 52.8594 125.913 52.9067 125.06 53.0013C124.681 53.0486 124.302 53.0959 123.923 53.0959L122.501 53.2378L121.98 53.2851L120.322 53.4743C119.563 53.5688 118.805 53.6634 118.142 53.758L117.052 53.8999C114.92 54.231 113.451 54.4674 112.408 54.7039C109.092 55.3188 105.822 56.312 102.695 57.6362C101.605 55.2242 100.231 52.954 98.5723 50.873C97.4824 49.4542 96.2978 48.1299 95.0185 46.8529C94.1656 46.0016 93.2652 45.1503 92.2228 44.2517L91.5594 43.7315C91.3916 43.6059 91.2332 43.4803 91.0798 43.3588C90.8868 43.2058 90.7018 43.0592 90.517 42.9274L90.1379 42.6437L89.9484 42.5005C89.6045 42.2399 89.1938 41.9285 88.7164 41.6505L88.4321 41.4613C87.9582 41.1302 87.437 40.7992 86.821 40.4208L86.7736 40.3735C86.6224 40.2854 86.4644 40.1907 86.2997 40.0919C85.8454 39.8193 85.34 39.5161 84.7835 39.2384L83.8358 38.7655C83.5515 38.6236 83.2672 38.4817 82.9829 38.3871L81.7035 37.8196L79.3817 36.921L76.0648 35.8332L75.2119 35.5494C74.2642 35.2656 73.4113 34.9819 72.6532 34.6981H72.6058L71.8476 34.4143L70.8526 34.036L69.1467 33.2319C67.0144 32.286 64.9769 31.151 63.0342 29.7794L62.9868 29.7321C60.9019 28.2187 58.9592 26.6106 57.0638 24.8607L55.2632 23.2527C54.8523 22.881 54.4378 22.5023 54.0199 22.1204C52.896 21.0935 51.7464 20.0431 50.5722 19.0434C48.1082 16.9151 45.7864 15.1652 43.6067 13.6518C41.2849 11.9491 38.8209 10.4357 36.2622 9.15873C34.9354 8.4966 33.6087 7.88177 32.2345 7.40882L32.0924 7.36152C30.6235 6.84127 29.1072 6.46291 27.5435 6.22644C25.8377 5.94267 24.1318 5.94267 22.426 6.13185C20.6728 6.32103 18.967 6.84127 17.4033 7.5507L17.3085 7.598C15.9344 8.26013 14.655 9.15874 13.4704 10.1992L13.3757 10.2938C12.9492 10.7195 12.5227 11.1451 12.0963 11.6181L11.812 11.9964C11.5277 12.3275 11.2908 12.6586 11.0538 12.9896C10.2483 14.1247 9.53755 15.3544 8.96894 16.6314L8.54248 17.5773C8.4951 17.6955 8.45956 17.8019 8.42994 17.8906C8.40033 17.9793 8.37664 18.0502 8.35294 18.0975C8.32366 18.156 8.25818 18.3409 8.16769 18.5964C8.11176 18.7544 8.04627 18.9393 7.97387 19.138L7.92649 19.2799C7.54742 20.3677 7.26311 21.5028 7.02619 22.6378C6.6945 24.2932 6.4102 25.9958 6.22066 27.6984L6.17328 28.1714C6.14885 28.3421 6.13701 28.5253 6.12478 28.7147C6.1133 28.8926 6.10146 29.0759 6.07851 29.2592L6.03112 30.7726C5.98374 31.9077 5.98374 32.9955 6.07851 34.1306L6.12589 34.7927C6.4102 37.6304 7.02619 40.4208 7.92649 43.1639C8.70904 45.4153 9.67046 47.622 10.5935 49.7407L10.6748 49.9271L10.9591 50.6365C12.0015 52.954 12.8544 55.2242 13.66 57.4943L13.9443 58.2983C14.0455 58.6352 14.1528 58.96 14.2575 59.2771C14.4468 59.8505 14.6278 60.3987 14.7498 60.9469V61.0415L14.9867 61.7982C15.0341 61.9637 15.0815 62.1411 15.1289 62.3184C15.1763 62.4958 15.2236 62.6731 15.271 62.8387L15.7449 64.8251L15.7922 64.967C15.9818 65.7237 16.1713 66.6223 16.3135 67.5682L16.503 68.7033L16.6925 69.6492C16.6925 69.7201 16.7044 69.7911 16.7162 69.862C16.7281 69.9329 16.7399 70.0039 16.7399 70.0748L17.4033 74.757V74.8989C17.427 74.9935 17.4388 75.0999 17.4507 75.2064C17.4625 75.3128 17.4744 75.4192 17.4981 75.5138C17.5241 75.6698 17.5502 75.833 17.5772 76.0023C17.6485 76.449 17.7267 76.9385 17.8298 77.4529L17.9719 78.115C18.0667 78.6825 18.2088 79.2974 18.3984 79.9595C18.4458 80.196 18.4931 80.4325 18.5879 80.6216C18.73 81.1891 18.8722 81.7093 19.0143 82.2295C19.962 85.3982 21.194 88.4726 22.7103 91.4049C23.3722 92.7262 24.0341 93.8672 24.6644 94.9539L24.9374 95.425C25.1283 95.7517 25.3349 96.0784 25.5301 96.387C25.674 96.6146 25.8118 96.8323 25.9324 97.033L27.3066 99.114C28.6807 101.148 30.197 103.087 31.8081 104.931C33.0401 106.397 34.0825 107.533 35.0776 108.526L35.125 108.573C37.2099 110.749 39.5317 112.688 41.9957 114.438L41.7959 115.032C41.5325 115.813 41.2751 116.577 41.048 117.37C40.1003 120.775 39.4843 124.275 39.2474 127.775L39.2 128.106L39.1508 128.75C39.0479 130.083 38.887 132.166 38.7262 135.579C38.5366 139.599 38.5366 145.983 38.8209 151.281C38.9631 153.74 39.1526 156.247 39.3895 158.327C39.4193 158.743 39.4677 159.121 39.5113 159.462C39.5372 159.665 39.5614 159.854 39.5791 160.03L40.0529 163.766V163.814C40.2424 165.185 40.6215 167.361 41.1427 169.962C41.664 172.563 42.3273 175.212 43.0855 177.718C43.9858 180.793 44.9335 183.299 45.5495 184.907C46.4971 187.319 47.587 189.684 48.819 192.002C49.0917 192.546 49.3645 192.995 49.6109 193.4L49.7666 193.657C49.814 193.752 49.8733 193.846 49.9325 193.941C49.9917 194.035 50.051 194.13 50.0983 194.224L51.1408 195.974L51.1882 196.069C53.2731 199.38 55.8792 202.312 58.9592 204.771C60.1911 205.765 61.5179 206.616 62.892 207.42C62.9631 207.514 63.0223 207.609 63.0815 207.703C63.1407 207.798 63.2 207.893 63.2711 207.987C64.2662 209.406 65.356 210.73 66.5406 211.913C67.7252 213.048 68.9572 214.136 70.284 215.082L70.3787 215.129C71.6581 216.028 73.0322 216.832 74.4538 217.541C79.1922 219.906 84.594 221.419 90.896 222.081C93.4548 222.365 96.0609 222.507 98.667 222.507H98.7618C101.273 222.507 103.832 222.318 106.343 222.034H106.391C108.76 221.75 111.176 221.325 113.498 220.757C114.195 220.611 114.834 220.436 115.417 220.277C115.588 220.23 115.754 220.185 115.915 220.142L116.768 219.906L117.052 219.811L117.858 219.575C118.616 219.338 119.374 219.102 120.227 218.818C120.843 218.581 121.459 218.345 122.122 218.109C122.501 218.44 122.833 218.723 123.259 219.054L123.307 219.102C125.723 220.994 128.377 222.507 131.22 223.595C131.789 223.831 132.452 224.068 133.494 224.399C133.755 224.493 134.016 224.576 134.276 224.659C134.537 224.742 134.797 224.824 135.058 224.919L135.295 225.014C135.773 225.163 136.271 225.293 136.787 225.429C137.088 225.508 137.397 225.589 137.712 225.676C138.205 225.817 138.673 225.905 139.173 226C139.345 226.032 139.52 226.065 139.702 226.101L140.507 226.243L140.697 226.291C141.076 226.338 141.455 226.385 141.834 226.48L143.066 226.669L145.483 226.905H145.625C145.828 226.905 146.017 226.919 146.193 226.932C146.345 226.943 146.488 226.953 146.62 226.953L148.326 227H149.747C150.221 227 150.884 227 151.642 226.953C153.68 226.811 155.67 226.574 157.66 226.149L159.271 225.818L159.413 225.77C159.84 225.676 160.219 225.581 160.598 225.439L160.977 225.345L162.02 225.061L163.82 224.493L164.436 224.304C164.616 224.233 164.795 224.168 164.977 224.102C165.275 223.994 165.581 223.883 165.905 223.737L167.137 223.216C167.99 222.885 168.795 222.46 169.601 222.034C170.217 221.703 170.833 221.372 171.402 221.041L171.591 220.946C172.728 220.237 173.818 219.433 174.861 218.581L175.145 218.345C175.287 218.203 175.441 218.073 175.595 217.943C175.749 217.813 175.903 217.683 176.045 217.541C177.751 218.203 179.457 218.771 181.163 219.244C186.091 220.71 191.208 221.608 196.326 221.939C202.012 222.318 207.745 221.703 213.242 220.142C216.274 219.244 219.165 217.919 221.818 216.217C224.709 214.372 227.22 212.007 229.21 209.264L229.258 209.217C230.253 207.798 231.106 206.332 231.864 204.771C233.238 201.744 234.043 198.528 234.328 195.265C234.47 193.988 234.517 192.758 234.47 191.481V190.488C234.423 189.827 234.375 189.307 234.328 188.787C234.328 188.686 234.314 188.583 234.301 188.489C234.291 188.407 234.28 188.331 234.28 188.265L234.138 186.941L233.854 185.617C233.83 185.522 233.818 185.439 233.806 185.357C233.795 185.274 233.783 185.191 233.759 185.097C233.664 184.624 233.522 184.009 233.333 183.347L232.764 181.502C232.622 180.982 232.432 180.509 232.195 180.036L231.437 178.239C231.248 177.813 231.106 177.529 230.963 177.246L230.537 176.489C230.443 176.319 230.356 176.15 230.27 175.983C230.142 175.732 230.016 175.487 229.874 175.259L228.736 173.415L228.642 173.273C227.741 171.901 226.794 170.672 225.846 169.442L227.125 167.597C229.115 164.381 230.632 160.929 231.674 157.287L231.864 156.578C232.859 152.889 233.617 149.152 234.091 145.369V145.274L234.186 144.47C234.28 143.855 234.375 143.193 234.422 142.484L234.659 139.788L234.707 138.984C234.802 137.234 234.896 135.437 234.849 133.45C234.802 129.052 234.422 124.653 233.712 120.302C233.238 117.512 232.574 114.721 231.769 111.978C232.622 111.174 233.427 110.323 234.186 109.424C236.602 106.492 238.592 103.276 240.061 99.8235C241.009 97.7425 242.43 94.3372 244.326 88.9456C246.221 83.5539 248.069 77.2637 249.68 70.8789C251.291 64.494 252.76 57.6835 253.803 51.346C254.798 45.5287 255.508 39.806 255.84 35.3129C255.982 32.9009 256.03 30.5361 255.982 28.1241Z"
          stroke="white" stroke-width="12" mask="url(#path-1-outside-1_604_2)"/>
    <path fill-rule="evenodd" clip-rule="evenodd"
          d="M255.982 28.1241L255.935 27.2728C255.935 26.8944 255.887 26.2796 255.793 25.381C255.752 24.8902 255.675 24.3995 255.594 23.8782L255.556 23.631V23.5837C255.414 22.6378 255.177 21.6919 254.845 20.746L254.324 19.5164C254.087 19.0434 253.85 18.5705 253.566 18.1448C252.997 17.2462 252.286 16.4422 251.433 15.78C250.296 14.8341 248.922 14.172 247.453 13.8409C246.884 13.6991 246.316 13.6518 245.747 13.6045L245.084 13.5572H243.947C243.236 13.5572 242.525 13.6518 241.814 13.7464C241.104 13.8409 240.345 14.0301 239.635 14.2193L238.971 14.4085C238.118 14.6923 237.313 15.0233 236.555 15.4017C233.238 17.057 230.537 19.5637 228.547 21.5501C227.9 22.1953 227.254 22.8846 226.622 23.5579C226.329 23.8712 226.037 24.1821 225.751 24.4823C225.056 25.2391 224.319 25.9959 223.582 26.7527C223.213 27.131 222.845 27.5093 222.482 27.8876C220.586 29.7794 218.549 31.482 216.369 32.9955C214.284 34.4143 212.057 35.5494 209.688 36.4007L205.092 38.1506L204.76 38.2925C204.239 38.529 203.718 38.7655 203.244 39.0019L202.486 39.3803L201.964 39.6168C201.348 39.9006 200.732 40.2316 200.164 40.5627C197.652 41.9342 195.236 43.495 192.914 45.1976L192.867 45.2449L192.061 45.8597C191.492 46.2854 190.924 46.711 190.403 47.184L188.081 49.1704L186.47 50.6838C183.721 53.2378 181.352 56.1228 179.41 59.2915C179.291 59.4807 179.173 59.6817 179.054 59.8827C178.936 60.0837 178.817 60.2848 178.699 60.4739L178.13 60.2374C172.823 58.2983 167.421 56.7376 161.925 55.5079C150.695 53.0486 139.18 52.1027 127.666 52.8121C126.766 52.8594 125.913 52.9067 125.06 53.0013C124.681 53.0486 124.302 53.0959 123.923 53.0959L122.501 53.2378L121.98 53.2851L120.322 53.4743C119.563 53.5688 118.805 53.6634 118.142 53.758L117.052 53.8999C114.92 54.231 113.451 54.4674 112.408 54.7039C109.092 55.3188 105.822 56.312 102.695 57.6362C101.605 55.2242 100.231 52.954 98.5723 50.873C97.4824 49.4542 96.2978 48.1299 95.0185 46.8529C94.1656 46.0016 93.2652 45.1503 92.2228 44.2517L91.5594 43.7315C91.3916 43.6059 91.2332 43.4803 91.0798 43.3588C90.8868 43.2058 90.7018 43.0592 90.517 42.9274L90.1379 42.6437L89.9484 42.5005C89.6045 42.2399 89.1938 41.9285 88.7164 41.6505L88.4321 41.4613C87.9582 41.1302 87.437 40.7992 86.821 40.4208L86.7736 40.3735C86.6224 40.2854 86.4644 40.1907 86.2997 40.0919C85.8454 39.8193 85.34 39.5161 84.7835 39.2384L83.8358 38.7655C83.5515 38.6236 83.2672 38.4817 82.9829 38.3871L81.7035 37.8196L79.3817 36.921L76.0648 35.8332L75.2119 35.5494C74.2642 35.2656 73.4113 34.9819 72.6532 34.6981H72.6058L71.8476 34.4143L70.8526 34.036L69.1467 33.2319C67.0144 32.286 64.9769 31.151 63.0342 29.7794L62.9868 29.7321C60.9019 28.2187 58.9592 26.6106 57.0638 24.8607L55.2632 23.2527C54.8523 22.881 54.4378 22.5023 54.0199 22.1204C52.896 21.0935 51.7464 20.0431 50.5722 19.0434C48.1082 16.9151 45.7864 15.1652 43.6067 13.6518C41.2849 11.9491 38.8209 10.4357 36.2622 9.15873C34.9354 8.4966 33.6087 7.88177 32.2345 7.40882L32.0924 7.36152C30.6235 6.84127 29.1072 6.46291 27.5435 6.22644C25.8377 5.94267 24.1318 5.94267 22.426 6.13185C20.6728 6.32103 18.967 6.84127 17.4033 7.5507L17.3085 7.598C15.9344 8.26013 14.655 9.15874 13.4704 10.1992L13.3757 10.2938C12.9492 10.7195 12.5227 11.1451 12.0963 11.6181L11.812 11.9964C11.5277 12.3275 11.2908 12.6586 11.0538 12.9896C10.2483 14.1247 9.53755 15.3544 8.96894 16.6314L8.54248 17.5773C8.4951 17.6955 8.45956 17.8019 8.42994 17.8906C8.40033 17.9793 8.37664 18.0502 8.35294 18.0975C8.32366 18.156 8.25818 18.3409 8.16769 18.5964C8.11176 18.7544 8.04627 18.9393 7.97387 19.138L7.92649 19.2799C7.54742 20.3677 7.26311 21.5028 7.02619 22.6378C6.6945 24.2932 6.4102 25.9958 6.22066 27.6984L6.17328 28.1714C6.14885 28.3421 6.13701 28.5253 6.12478 28.7147C6.1133 28.8926 6.10146 29.0759 6.07851 29.2592L6.03112 30.7726C5.98374 31.9077 5.98374 32.9955 6.07851 34.1306L6.12589 34.7927C6.4102 37.6304 7.02619 40.4208 7.92649 43.1639C8.70904 45.4153 9.67046 47.622 10.5935 49.7407L10.6748 49.9271L10.9591 50.6365C12.0015 52.954 12.8544 55.2242 13.66 57.4943L13.9443 58.2983C14.0455 58.6352 14.1528 58.96 14.2575 59.2771C14.4468 59.8505 14.6278 60.3987 14.7498 60.9469V61.0415L14.9867 61.7982C15.0341 61.9637 15.0815 62.1411 15.1289 62.3184C15.1763 62.4958 15.2236 62.6731 15.271 62.8387L15.7449 64.8251L15.7922 64.967C15.9818 65.7237 16.1713 66.6223 16.3135 67.5682L16.503 68.7033L16.6925 69.6492C16.6925 69.7201 16.7044 69.7911 16.7162 69.862C16.7281 69.9329 16.7399 70.0039 16.7399 70.0748L17.4033 74.757V74.8989C17.427 74.9935 17.4388 75.0999 17.4507 75.2064C17.4625 75.3128 17.4744 75.4192 17.4981 75.5138C17.5241 75.6698 17.5502 75.833 17.5772 76.0023C17.6485 76.449 17.7267 76.9385 17.8298 77.4529L17.9719 78.115C18.0667 78.6825 18.2088 79.2974 18.3984 79.9595C18.4458 80.196 18.4931 80.4325 18.5879 80.6216C18.73 81.1891 18.8722 81.7093 19.0143 82.2295C19.962 85.3982 21.194 88.4726 22.7103 91.4049C23.3722 92.7262 24.0341 93.8672 24.6644 94.9539L24.9374 95.425C25.1283 95.7517 25.3349 96.0784 25.5301 96.387C25.674 96.6146 25.8118 96.8323 25.9324 97.033L27.3066 99.114C28.6807 101.148 30.197 103.087 31.8081 104.931C33.0401 106.397 34.0825 107.533 35.0776 108.526L35.125 108.573C37.2099 110.749 39.5317 112.688 41.9957 114.438L41.7959 115.032C41.5325 115.813 41.2751 116.577 41.048 117.37C40.1003 120.775 39.4843 124.275 39.2474 127.775L39.2 128.106L39.1508 128.75C39.0479 130.083 38.887 132.166 38.7262 135.579C38.5366 139.599 38.5366 145.983 38.8209 151.281C38.9631 153.74 39.1526 156.247 39.3895 158.327C39.4193 158.743 39.4677 159.121 39.5113 159.462C39.5372 159.665 39.5614 159.854 39.5791 160.03L40.0529 163.766V163.814C40.2424 165.185 40.6215 167.361 41.1427 169.962C41.664 172.563 42.3273 175.212 43.0855 177.718C43.9858 180.793 44.9335 183.299 45.5495 184.907C46.4971 187.319 47.587 189.684 48.819 192.002C49.0917 192.546 49.3645 192.995 49.6109 193.4L49.7666 193.657C49.814 193.752 49.8733 193.846 49.9325 193.941C49.9917 194.035 50.051 194.13 50.0983 194.224L51.1408 195.974L51.1882 196.069C53.2731 199.38 55.8792 202.312 58.9592 204.771C60.1911 205.765 61.5179 206.616 62.892 207.42C62.9631 207.514 63.0223 207.609 63.0815 207.703C63.1407 207.798 63.2 207.893 63.2711 207.987C64.2662 209.406 65.356 210.73 66.5406 211.913C67.7252 213.048 68.9572 214.136 70.284 215.082L70.3787 215.129C71.6581 216.028 73.0322 216.832 74.4538 217.541C79.1922 219.906 84.594 221.419 90.896 222.081C93.4548 222.365 96.0609 222.507 98.667 222.507H98.7618C101.273 222.507 103.832 222.318 106.343 222.034H106.391C108.76 221.75 111.176 221.325 113.498 220.757C114.195 220.611 114.834 220.436 115.417 220.277C115.588 220.23 115.754 220.185 115.915 220.142L116.768 219.906L117.052 219.811L117.858 219.575C118.616 219.338 119.374 219.102 120.227 218.818C120.843 218.581 121.459 218.345 122.122 218.109C122.501 218.44 122.833 218.723 123.259 219.054L123.307 219.102C125.723 220.994 128.377 222.507 131.22 223.595C131.789 223.831 132.452 224.068 133.494 224.399C133.755 224.493 134.016 224.576 134.276 224.659C134.537 224.742 134.797 224.824 135.058 224.919L135.295 225.014C135.773 225.163 136.271 225.293 136.787 225.429C137.088 225.508 137.397 225.589 137.712 225.676C138.205 225.817 138.673 225.905 139.173 226C139.345 226.032 139.52 226.065 139.702 226.101L140.507 226.243L140.697 226.291C141.076 226.338 141.455 226.385 141.834 226.48L143.066 226.669L145.483 226.905H145.625C145.828 226.905 146.017 226.919 146.193 226.932C146.345 226.943 146.488 226.953 146.62 226.953L148.326 227H149.747C150.221 227 150.884 227 151.642 226.953C153.68 226.811 155.67 226.574 157.66 226.149L159.271 225.818L159.413 225.77C159.84 225.676 160.219 225.581 160.598 225.439L160.977 225.345L162.02 225.061L163.82 224.493L164.436 224.304C164.616 224.233 164.795 224.168 164.977 224.102C165.275 223.994 165.581 223.883 165.905 223.737L167.137 223.216C167.99 222.885 168.795 222.46 169.601 222.034C170.217 221.703 170.833 221.372 171.402 221.041L171.591 220.946C172.728 220.237 173.818 219.433 174.861 218.581L175.145 218.345C175.287 218.203 175.441 218.073 175.595 217.943C175.749 217.813 175.903 217.683 176.045 217.541C177.751 218.203 179.457 218.771 181.163 219.244C186.091 220.71 191.208 221.608 196.326 221.939C202.012 222.318 207.745 221.703 213.242 220.142C216.274 219.244 219.165 217.919 221.818 216.217C224.709 214.372 227.22 212.007 229.21 209.264L229.258 209.217C230.253 207.798 231.106 206.332 231.864 204.771C233.238 201.744 234.043 198.528 234.328 195.265C234.47 193.988 234.517 192.758 234.47 191.481V190.488C234.423 189.827 234.375 189.307 234.328 188.787C234.328 188.686 234.314 188.583 234.301 188.489C234.291 188.407 234.28 188.331 234.28 188.265L234.138 186.941L233.854 185.617C233.83 185.522 233.818 185.439 233.806 185.357C233.795 185.274 233.783 185.191 233.759 185.097C233.664 184.624 233.522 184.009 233.333 183.347L232.764 181.502C232.622 180.982 232.432 180.509 232.195 180.036L231.437 178.239C231.248 177.813 231.106 177.529 230.963 177.246L230.537 176.489C230.443 176.319 230.356 176.15 230.27 175.983C230.142 175.732 230.016 175.487 229.874 175.259L228.736 173.415L228.642 173.273C227.741 171.901 226.794 170.672 225.846 169.442L227.125 167.597C229.115 164.381 230.632 160.929 231.674 157.287L231.864 156.578C232.859 152.889 233.617 149.152 234.091 145.369V145.274L234.186 144.47C234.28 143.855 234.375 143.193 234.422 142.484L234.659 139.788L234.707 138.984C234.802 137.234 234.896 135.437 234.849 133.45C234.802 129.052 234.422 124.653 233.712 120.302C233.238 117.512 232.574 114.721 231.769 111.978C232.622 111.174 233.427 110.323 234.186 109.424C236.602 106.492 238.592 103.276 240.061 99.8235C241.009 97.7425 242.43 94.3372 244.326 88.9456C246.221 83.5539 248.069 77.2637 249.68 70.8789C251.291 64.494 252.76 57.6835 253.803 51.346C254.798 45.5287 255.508 39.806 255.84 35.3129C255.982 32.9009 256.03 30.5361 255.982 28.1241Z"
          stroke="white" stroke-width="5"/>
    <path d="M54.7415 114.404C54.7415 114.404 54.7888 114.357 54.8833 114.215L54.6471 114.357L54.7415 114.404Z"
          fill="white"/>
    <path d="M154.106 196.568C153.111 195.526 152.258 194.531 151.5 193.583C151.358 193.394 151.216 193.251 151.073 193.109C150.931 193.015 150.836 192.872 150.694 192.778C150.457 192.588 150.173 192.493 149.841 192.399C149.32 192.256 148.799 192.304 148.325 192.446C147.946 192.588 147.614 192.778 147.33 193.015C147.188 193.109 147.141 193.204 147.046 193.346L146.714 193.725L146.43 194.057L145.34 195.289C144.629 196.094 143.539 197.232 142.118 198.653C138.09 202.586 133.589 206.045 128.756 208.888C127.476 209.646 126.102 210.357 124.681 211.068C126.007 211.636 127.239 212.063 128.471 212.584C130.414 213.342 132.357 214.148 134.915 215.143C135.342 215.332 135.911 215.522 136.763 215.806C137.19 215.948 137.664 216.09 138.232 216.28C138.801 216.47 139.464 216.612 140.222 216.801C140.791 216.943 141.644 217.086 142.497 217.275C142.923 217.37 143.397 217.417 143.824 217.465L144.487 217.559L145.15 217.607L146.382 217.702C146.761 217.749 147.093 217.749 147.377 217.749L148.325 217.796H149.131C149.604 217.796 150.315 217.796 151.073 217.749C152.684 217.654 154.248 217.417 155.812 217.133L157.233 216.849C157.707 216.754 158.134 216.612 158.513 216.517L159.65 216.185L160.645 215.854C161.261 215.617 161.83 215.474 162.303 215.285L163.441 214.811C164.057 214.574 164.673 214.337 165.241 214.053C165.81 213.769 166.331 213.579 166.852 213.342C167.895 212.868 168.842 212.442 169.79 212.063C170.738 211.684 171.685 211.257 172.68 210.831L173.486 210.452C169.127 208.414 165.004 205.95 161.166 203.06C158.702 201.07 156.286 198.938 154.106 196.568Z"
          fill="white"/>
    <path d="M102.363 149.421C109.281 149.421 114.872 143.83 114.872 136.912C114.872 129.994 109.281 124.403 102.363 124.403C95.4446 124.403 89.8533 129.994 89.8533 136.912C89.8533 143.83 95.4446 149.421 102.363 149.421Z"
          fill="white"/>
    <path d="M190.876 147.62C196.799 147.62 201.632 142.835 201.632 136.912C201.632 130.989 196.846 126.156 190.923 126.156C185 126.156 180.167 130.941 180.167 136.864C180.167 142.787 184.953 147.573 190.876 147.62Z"
          fill="white"/>
    <path d="M70.3311 89.7173C70.6628 89.1961 70.9945 88.6749 71.3735 88.1536C71.7526 87.6324 72.1317 87.1112 72.5107 86.59C72.7003 86.353 72.9372 86.0687 73.1267 85.8318L73.7901 85.0737C74.2166 84.5524 74.6904 84.0786 75.1642 83.6048C76.1593 82.6097 77.2018 81.7094 78.2916 80.9039C79.4288 80.0984 80.6134 79.3876 81.8454 78.7242C82.4614 78.3925 83.03 78.1082 83.646 77.8239L83.8829 77.7292H83.9303L83.5512 76.971C83.4091 76.6867 83.2669 76.4024 83.0774 76.1181C82.4614 74.9809 81.798 73.9384 81.1346 72.8486C78.4811 68.7262 75.5433 64.7933 72.3212 61.0974C69.2886 57.591 66.3508 54.511 63.7921 51.9523C61.2334 49.3936 59.0063 47.4034 57.4427 46.0293C55.879 44.6552 54.9787 43.897 54.9787 43.897C54.9787 43.897 54.0784 43.1389 52.5147 41.8121C50.9511 40.4854 48.5345 38.6374 45.5967 36.5051C42.2798 34.0412 38.8208 31.7194 35.2196 29.5871C33.1821 28.3551 31.0972 27.2653 28.9649 26.2702C27.8751 25.7964 26.7853 25.3225 25.648 24.9908C25.1268 24.8013 24.5582 24.7065 23.9896 24.6118C23.5158 24.517 23.0419 24.4696 22.5681 24.517C22.4733 24.517 22.4259 24.517 22.3312 24.5644C22.2838 24.5644 22.2364 24.6118 22.189 24.6118C22.1416 24.6118 22.1416 24.6592 22.0942 24.6592C22.0942 24.6592 22.0942 24.6118 22.0469 24.7065C21.9047 24.8961 21.7626 25.0856 21.6678 25.2751L21.4783 25.5594L21.4309 25.8438C21.0518 26.8862 20.8623 27.976 20.8149 29.0659C20.7675 31.5772 20.957 34.0412 21.3835 36.5051C21.7626 39.0165 22.2364 41.4805 22.7102 43.897C23.1841 46.3136 23.6579 48.6354 24.0844 50.8625C24.7951 54.5584 25.3637 57.591 25.6007 59.1547C25.6954 59.7233 25.7428 60.2445 25.8376 60.7657L26.2166 62.5189C26.5957 63.9404 26.8326 65.4093 27.1169 66.8782L27.3065 67.9681C27.3539 68.3471 27.4012 68.7262 27.4486 69.0579L27.7803 71.2849L28.112 73.4172C28.2068 74.0806 28.3015 74.7914 28.4437 75.4073C28.5858 76.0233 28.6806 76.7341 28.8701 77.3975C29.0597 78.0609 29.2018 78.7242 29.3914 79.3402C30.1495 81.8989 31.1446 84.3629 32.3766 86.7795C32.9925 87.9641 33.6085 89.1013 34.2719 90.1438C34.6036 90.7124 34.9353 91.2336 35.267 91.7548L35.7882 92.5129L36.262 93.1763C37.4466 94.8821 38.726 96.5406 40.1001 98.1516C41.2374 99.5258 42.2324 100.568 42.8958 101.279C45.3598 103.885 47.3025 105.923 49.1031 107.913L51.804 110.993C52.6569 111.988 53.5572 113.03 54.5522 114.073L54.7418 114.215C55.8316 112.035 56.7319 110.235 57.7743 108.434C58.9589 106.396 60.2857 104.406 61.7546 102.511C62.2284 101.895 62.8918 100.995 63.6973 99.8101L65.0241 97.9147L65.4032 97.3935L65.8296 96.7301C66.1139 96.3037 66.4456 95.8772 66.7299 95.4034C67.2985 94.5031 67.9145 93.5554 68.4831 92.6077C68.7674 92.1339 69.0991 91.6127 69.4308 91.0914C69.7625 90.5702 69.9994 90.2385 70.3311 89.7173Z"
          fill="white"/>
    <path d="M245.225 27.8815C245.225 27.7393 245.225 27.5498 245.178 27.4077C245.036 27.2655 244.799 27.1707 244.562 27.1234C244.277 27.1234 243.993 27.2181 243.756 27.3129C242.809 27.7393 241.861 28.2606 241.055 28.9239C238.923 30.5824 236.98 32.4304 235.227 34.5152C233.047 36.9318 230.157 40.533 227.883 43.613C225.608 46.6929 223.855 49.1095 223.855 49.1095C223.855 49.1095 221.817 51.9999 219.353 55.6011C216.89 59.2023 214.141 63.4668 212.53 66.0256L209.45 70.8587C207.46 74.0808 205.138 77.1134 202.485 79.8143L202.58 79.9091L203.669 80.762C204.428 81.4253 205.328 82.0887 206.276 82.9416L209.308 85.7373C210.351 86.8271 211.44 87.9643 212.578 89.2437L214.236 91.2338L215.089 92.2763C215.373 92.6553 215.61 93.0344 215.894 93.3661L217.506 95.6405C218.027 96.4461 218.548 97.299 219.069 98.1045C221.107 101.469 222.86 105.023 224.234 108.718C224.471 108.292 224.66 107.913 224.897 107.487C225.513 106.255 226.035 105.07 226.556 103.885C227.598 101.421 228.688 98.8626 230.157 95.5931C230.868 93.9821 232.242 90.8074 234.043 85.5477C235.748 80.6198 237.549 74.6021 239.113 68.3474C240.676 62.0927 242.05 55.5537 243.093 49.5833C244.088 43.613 244.751 38.3533 245.036 34.5626C245.178 32.6673 245.225 31.151 245.225 30.1085C245.225 29.0661 245.225 28.5449 245.225 28.5449V27.8815Z"
          fill="white"/>
    <path d="M214.284 171.502C213.905 171.123 213.478 170.791 213.099 170.46C212.72 170.128 212.294 169.749 211.914 169.465C211.109 168.801 210.303 168.185 209.451 167.569C208.598 166.953 207.792 166.385 206.987 165.816C206.181 165.247 205.328 164.726 204.523 164.205L203.291 163.447L202.675 163.068L202.296 162.878C201.585 162.499 200.921 162.073 200.305 161.741C199.073 161.078 198.078 160.556 197.368 160.225C195.141 159.088 193.34 158.14 191.682 157.192C191.302 156.955 190.923 156.766 190.544 156.624C177.324 150.558 169.222 148.142 167.184 146.862C158.655 111.182 164.72 77.0186 166.663 67.8735C164.388 67.2101 162.067 66.6415 159.697 66.0729C154.438 64.8883 149.083 64.1302 143.682 63.7037C140.649 63.4668 137.664 63.372 134.773 63.372C136.242 74.602 141.549 121.986 128.471 146.815C124.633 148.995 120.653 150.89 116.531 152.501C114.351 153.638 105.538 157.24 99.3302 159.94C97.4823 160.888 95.5395 161.836 93.0282 163.02C90.5642 164.205 88.2424 165.532 85.968 167.001L85.8258 167.095L85.4941 167.332L84.8308 167.759C84.4043 168.043 83.9778 168.375 83.5514 168.706C82.6985 169.322 81.8456 169.986 81.04 170.697C79.3816 172.118 77.8179 173.634 76.349 175.293C73.3165 178.657 71.042 182.59 69.6205 186.855C68.9571 188.987 68.5781 191.214 68.5781 193.488C68.5781 195.715 69.0045 197.895 69.81 199.932C70.2365 200.928 70.7577 201.923 71.3737 202.823C71.9897 203.723 72.7005 204.576 73.506 205.382C74.3115 206.187 75.1644 206.898 76.0647 207.514C77.0124 208.177 77.9601 208.746 78.9551 209.267C83.0302 211.305 87.579 212.347 92.0805 212.821C96.4872 213.342 100.894 213.342 105.301 212.821C107.386 212.584 109.423 212.205 111.461 211.731C112.456 211.542 113.403 211.21 114.351 210.973C115.299 210.736 116.199 210.404 117.147 210.073C120.558 208.888 123.828 207.372 126.908 205.571C131.504 202.87 135.768 199.648 139.559 195.905C140.933 194.578 141.928 193.488 142.639 192.73L143.634 191.546C143.634 191.546 143.729 191.451 143.871 191.261L144.203 190.882C144.392 190.693 144.582 190.456 144.866 190.219C145.909 189.271 147.188 188.703 148.562 188.56C148.989 187.234 149.226 185.859 149.32 184.438C149.415 183.443 149.415 182.4 149.368 181.405C149.368 180.884 149.32 180.316 149.273 179.747C149.273 179.605 149.273 179.463 149.226 179.32L149.178 178.847C149.131 178.515 149.083 178.183 149.036 177.804L148.989 177.567C147.899 177.378 146.856 177.046 145.861 176.62C143.871 176.477 141.976 175.861 140.27 174.866C139.796 174.582 139.322 174.203 138.801 173.871C138.327 173.445 137.853 173.018 137.427 172.592C136.479 171.55 135.626 170.412 134.963 169.133C134.773 168.801 134.537 168.375 134.347 167.854C134.205 167.617 134.11 167.332 133.968 167.001C133.921 166.859 133.826 166.716 133.778 166.527L133.541 165.863C133.447 165.532 133.352 165.2 133.257 164.821C133.21 164.631 133.162 164.442 133.115 164.3L133.068 164.015L133.02 163.873C133.02 163.826 133.068 163.826 133.115 163.779C133.399 163.494 133.636 163.21 133.968 162.926L134.821 162.12C135.152 161.788 135.579 161.457 135.958 161.125L136.574 160.604L137.285 160.13C139.322 158.708 141.549 157.666 143.919 157.003C146.43 156.339 149.083 156.15 151.689 156.434C153.727 156.671 155.717 157.097 157.66 157.761C158.371 157.998 158.987 158.235 159.366 158.377C159.745 158.519 159.982 158.614 159.982 158.614L160.313 158.756C160.55 158.851 160.929 159.04 161.451 159.277C161.972 159.514 162.683 159.893 163.583 160.367C164.009 160.604 164.531 160.888 165.052 161.267C165.336 161.457 165.62 161.599 165.905 161.788L166.142 161.931L166.521 162.167L166.9 162.452L167.326 162.783C167.516 162.926 167.8 163.115 168.037 163.352L168.274 163.542L168.369 163.636V163.779L168.226 164.395C168.132 164.821 167.99 165.342 167.8 165.863L167.658 166.243L167.563 166.479C167.516 166.622 167.468 166.764 167.374 166.953C166.758 168.47 166.047 169.891 165.147 171.218C164.151 172.734 162.919 174.108 161.545 175.293C160.313 176.335 158.939 177.236 157.518 177.899C156.238 178.468 154.959 178.941 153.585 179.226L152.921 179.368H152.874V179.415C152.874 180.079 152.874 180.742 152.779 181.405C152.637 182.59 152.353 183.775 151.926 184.912C151.453 186.191 150.742 187.376 149.842 188.418C150.126 188.466 150.458 188.513 150.742 188.56C151.453 188.75 152.116 189.034 152.732 189.461C153.064 189.698 153.348 189.934 153.632 190.171C153.917 190.456 154.201 190.787 154.343 190.977C155.054 191.877 155.859 192.825 156.807 193.773C158.844 195.952 161.119 197.99 163.488 199.79C169.601 204.434 176.566 207.94 183.911 210.073C188.128 211.352 192.487 212.11 196.894 212.394C201.443 212.726 206.039 212.252 210.446 210.973C212.625 210.31 214.71 209.362 216.605 208.177C219.449 206.377 221.676 203.818 223.097 200.785C223.571 199.79 223.903 198.701 224.187 197.658C224.471 196.568 224.613 195.478 224.708 194.341C224.803 193.204 224.85 192.114 224.803 190.977C224.803 190.408 224.708 189.887 224.613 189.318L224.519 188.466L224.329 187.66C224.187 187.139 224.14 186.57 223.95 186.049C223.76 185.528 223.618 185.007 223.429 184.485C223.334 184.201 223.287 183.964 223.144 183.68L222.813 182.922L222.481 182.164C222.386 181.927 222.244 181.69 222.102 181.453C221.865 180.979 221.581 180.458 221.344 179.984L220.491 178.61C219.306 176.809 217.932 175.103 216.416 173.54C215.847 172.971 215.042 172.26 214.284 171.502ZM160.835 144.683C160.124 144.683 159.413 144.493 158.75 144.209C156.949 143.451 155.054 142.835 153.111 142.456C152.069 142.219 151.026 142.077 149.984 141.982C149.557 141.935 149.226 141.935 148.989 141.935H147.235C146.193 141.982 145.151 142.124 144.108 142.314C142.971 142.551 141.881 142.835 140.791 143.214C140.317 143.356 139.844 143.593 139.464 143.735C139.085 143.877 138.801 144.019 138.612 144.114C137.19 144.778 136.1 144.683 134.252 144.493C134.773 142.74 135.389 141.603 137 140.75C137.237 140.655 137.569 140.466 137.996 140.276C138.422 140.087 138.943 139.85 139.512 139.66C140.791 139.186 142.071 138.855 143.397 138.618C144.582 138.381 145.814 138.286 147.046 138.191C147.52 138.191 147.946 138.191 148.23 138.191H149.083C149.462 138.191 149.842 138.191 150.221 138.239C151.453 138.333 152.637 138.476 153.822 138.76C156.001 139.234 158.134 139.897 160.171 140.845C161.83 141.603 162.493 142.693 163.062 144.446C162.398 144.588 161.593 144.683 160.835 144.683Z"
          fill="white"/>
</svg>
