<svg width="190" height="184" viewBox="0 0 190 184" fill="none" xmlns="http://www.w3.org/2000/svg">
<path d="M14.9609 171C14.3828 171 13.9609 170.867 13.6953 170.602C13.4297 170.336 13.2969 169.914 13.2969 169.336V143.484C13.2969 142.906 13.4297 142.492 13.6953 142.242C13.9609 141.977 14.3828 141.844 14.9609 141.844H24.2891C27.1484 141.844 29.5703 142.406 31.5547 143.531C33.5547 144.641 35.0625 146.281 36.0781 148.453C37.1094 150.625 37.625 153.273 37.625 156.398C37.625 159.539 37.1094 162.195 36.0781 164.367C35.0625 166.539 33.5547 168.188 31.5547 169.312C29.5703 170.438 27.1484 171 24.2891 171H14.9609ZM24.2891 165.539C26.5078 165.539 28.1875 164.766 29.3281 163.219C30.4688 161.656 31.0391 159.383 31.0391 156.398C31.0391 153.43 30.4688 151.172 29.3281 149.625C28.1875 148.062 26.5078 147.281 24.2891 147.281H19.7656V165.539H24.2891ZM47.3047 171.352C45.1797 171.352 43.6172 170.797 42.6172 169.688C41.6328 168.562 41.1406 167.078 41.1406 165.234C41.1406 163.844 41.4297 162.594 42.0078 161.484C42.5859 160.359 43.7578 159.414 45.5234 158.648C47.2891 157.883 49.8125 157.5 53.0938 157.5V156.117C53.0938 155.305 52.8359 154.703 52.3203 154.312C51.8047 153.922 50.9844 153.727 49.8594 153.727C48.9219 153.727 48.1172 153.828 47.4453 154.031C46.7734 154.219 46.0469 154.477 45.2656 154.805C44.8594 154.992 44.6094 155.086 44.5156 155.086C44.2344 155.086 43.9219 154.875 43.5781 154.453C43.25 154.031 42.9609 153.547 42.7109 153C42.4609 152.453 42.3359 152.039 42.3359 151.758C42.3359 151.273 42.6797 150.812 43.3672 150.375C44.0703 149.922 45.0312 149.562 46.25 149.297C47.4688 149.016 48.8203 148.875 50.3047 148.875C53.4297 148.875 55.7031 149.5 57.125 150.75C58.5469 151.984 59.2578 153.68 59.2578 155.836V163.641C59.2578 164.938 59.2891 165.945 59.3516 166.664C59.4297 167.383 59.5312 168.094 59.6562 168.797C59.7344 169.219 59.7734 169.516 59.7734 169.688C59.7734 170 59.4766 170.258 58.8828 170.461C58.3047 170.664 57.6406 170.812 56.8906 170.906C56.1406 171 55.5391 171.047 55.0859 171.047C54.6016 171.047 54.25 170.844 54.0312 170.438C53.8281 170.016 53.6641 169.445 53.5391 168.727C53.5234 168.633 53.5078 168.539 53.4922 168.445C53.4766 168.352 53.4531 168.258 53.4219 168.164C53.2656 168.461 52.9297 168.859 52.4141 169.359C51.9141 169.859 51.2266 170.32 50.3516 170.742C49.4766 171.148 48.4609 171.352 47.3047 171.352ZM49.3438 166.453C50.125 166.453 50.8594 166.211 51.5469 165.727C52.2344 165.227 52.75 164.594 53.0938 163.828V161.531C49.2031 161.531 47.2578 162.555 47.2578 164.602C47.2578 165.148 47.4375 165.594 47.7969 165.938C48.1719 166.281 48.6875 166.453 49.3438 166.453ZM73.0391 179.836C66.4297 179.836 63.125 177.914 63.125 174.07C63.125 172.992 63.4453 172.039 64.0859 171.211C64.7422 170.383 65.6875 169.727 66.9219 169.242L66.9453 169.078C66.3828 168.781 65.9453 168.359 65.6328 167.812C65.3203 167.266 65.1641 166.648 65.1641 165.961C65.1641 165.258 65.375 164.609 65.7969 164.016C66.2344 163.422 66.8594 162.914 67.6719 162.492C66.6094 161.898 65.7734 161.086 65.1641 160.055C64.5703 159.023 64.2734 157.766 64.2734 156.281C64.2734 153.75 65.0938 151.883 66.7344 150.68C68.3906 149.477 70.5625 148.875 73.25 148.875C74.375 148.875 75.4453 148.984 76.4609 149.203H83.1641C83.6016 149.203 83.9219 149.375 84.125 149.719C84.3281 150.047 84.4297 150.57 84.4297 151.289V151.992C84.4297 153.305 84.0938 153.961 83.4219 153.961C83.1875 153.961 82.8672 153.945 82.4609 153.914C82.0703 153.883 81.7891 153.844 81.6172 153.797L81.5469 153.961C81.7344 154.211 81.8906 154.562 82.0156 155.016C82.1406 155.453 82.2031 155.875 82.2031 156.281C82.2031 158.766 81.4219 160.617 79.8594 161.836C78.2969 163.039 76.25 163.641 73.7188 163.641C72.0156 163.641 71.1641 164.023 71.1641 164.789C71.1641 165.133 71.3359 165.406 71.6797 165.609C72.0234 165.797 72.4609 165.945 72.9922 166.055C73.5391 166.164 74.3125 166.281 75.3125 166.406C76.0312 166.484 76.7031 166.578 77.3281 166.688C79.2969 167.078 80.8672 167.719 82.0391 168.609C83.2109 169.484 83.7969 170.867 83.7969 172.758C83.7969 174.18 83.3516 175.422 82.4609 176.484C81.5703 177.547 80.3125 178.367 78.6875 178.945C77.0625 179.539 75.1797 179.836 73.0391 179.836ZM73.25 159.211C74.1719 159.211 74.9219 158.969 75.5 158.484C76.0938 158 76.3906 157.266 76.3906 156.281C76.3906 155.297 76.0938 154.562 75.5 154.078C74.9219 153.578 74.1719 153.328 73.25 153.328C72.3281 153.328 71.5703 153.578 70.9766 154.078C70.3984 154.562 70.1094 155.297 70.1094 156.281C70.1094 157.266 70.3984 158 70.9766 158.484C71.5703 158.969 72.3281 159.211 73.25 159.211ZM73.5078 174.961C74.9141 174.961 75.9766 174.781 76.6953 174.422C77.4297 174.062 77.7969 173.562 77.7969 172.922C77.7969 172.484 77.5859 172.133 77.1641 171.867C76.7578 171.617 76.0938 171.406 75.1719 171.234C74.2656 171.078 72.9922 170.945 71.3516 170.836C70.6484 171.086 70.1016 171.414 69.7109 171.82C69.3203 172.227 69.125 172.648 69.125 173.086C69.125 173.68 69.4844 174.141 70.2031 174.469C70.9219 174.797 72.0234 174.961 73.5078 174.961ZM93.1016 171.352C92.0234 171.352 90.9531 171.234 89.8906 171C88.8281 170.766 87.9453 170.43 87.2422 169.992C86.5547 169.555 86.2109 169.055 86.2109 168.492C86.2109 168.148 86.3359 167.719 86.5859 167.203C86.8359 166.688 87.1328 166.242 87.4766 165.867C87.8359 165.477 88.1484 165.281 88.4141 165.281C88.5547 165.281 88.8594 165.391 89.3281 165.609C89.875 165.859 90.3984 166.062 90.8984 166.219C91.3984 166.375 91.9688 166.453 92.6094 166.453C93.4062 166.453 94.0078 166.305 94.4141 166.008C94.8203 165.711 95.0234 165.273 95.0234 164.695C95.0234 164.258 94.8984 163.898 94.6484 163.617C94.4141 163.32 94.1094 163.078 93.7344 162.891C93.3594 162.703 92.8281 162.477 92.1406 162.211L91.4609 161.953C90.5703 161.609 89.7891 161.219 89.1172 160.781C88.4453 160.344 87.875 159.711 87.4062 158.883C86.9375 158.039 86.7031 156.977 86.7031 155.695C86.7031 154.273 87.0078 153.055 87.6172 152.039C88.2422 151.008 89.125 150.227 90.2656 149.695C91.4062 149.148 92.75 148.875 94.2969 148.875C95.1875 148.875 96.1172 148.961 97.0859 149.133C98.0547 149.305 98.8672 149.57 99.5234 149.93C100.195 150.289 100.531 150.742 100.531 151.289C100.531 151.602 100.43 152.023 100.227 152.555C100.039 153.086 99.8047 153.555 99.5234 153.961C99.2422 154.367 98.9766 154.57 98.7266 154.57C98.6484 154.57 98.4297 154.5 98.0703 154.359C97.5859 154.156 97.1172 154 96.6641 153.891C96.2266 153.766 95.7188 153.703 95.1406 153.703C93.6719 153.703 92.9375 154.188 92.9375 155.156C92.9375 155.594 93.0703 155.969 93.3359 156.281C93.6172 156.594 93.9609 156.852 94.3672 157.055C94.7734 157.258 95.3438 157.5 96.0781 157.781C96.9219 158.125 97.4453 158.344 97.6484 158.438C98.7422 158.984 99.6172 159.711 100.273 160.617C100.945 161.508 101.281 162.703 101.281 164.203C101.281 165.625 100.961 166.875 100.32 167.953C99.6797 169.031 98.7422 169.867 97.5078 170.461C96.2734 171.055 94.8047 171.352 93.1016 171.352ZM108.102 171.07C106.445 171.07 105.617 170.633 105.617 169.758V143.086C105.617 142.633 105.812 142.297 106.203 142.078C106.609 141.844 107.242 141.727 108.102 141.727H109.578C110.438 141.727 111.062 141.844 111.453 142.078C111.859 142.297 112.062 142.633 112.062 143.086V153.375H123.312V143.086C123.312 142.633 123.516 142.297 123.922 142.078C124.328 141.844 124.961 141.727 125.82 141.727H127.273C128.945 141.727 129.781 142.18 129.781 143.086V169.758C129.781 170.633 128.945 171.07 127.273 171.07H125.82C124.148 171.07 123.312 170.633 123.312 169.758V158.883H112.062V169.758C112.062 170.633 111.234 171.07 109.578 171.07H108.102ZM141.266 171.352C139.172 171.352 137.625 170.805 136.625 169.711C135.625 168.602 135.125 166.891 135.125 164.578V150.445C135.125 150.008 135.328 149.68 135.734 149.461C136.141 149.242 136.773 149.133 137.633 149.133H138.781C139.641 149.133 140.273 149.242 140.68 149.461C141.086 149.68 141.289 150.008 141.289 150.445V163.641C141.289 164.5 141.484 165.148 141.875 165.586C142.266 166.023 142.906 166.242 143.797 166.242C144.562 166.242 145.227 166 145.789 165.516C146.367 165.016 146.812 164.453 147.125 163.828V150.445C147.125 150.008 147.328 149.68 147.734 149.461C148.141 149.242 148.773 149.133 149.633 149.133H150.781C151.641 149.133 152.273 149.242 152.68 149.461C153.086 149.68 153.289 150.008 153.289 150.445V163.641C153.289 164.953 153.32 165.984 153.383 166.734C153.461 167.469 153.555 168.156 153.664 168.797C153.742 169.219 153.781 169.516 153.781 169.688C153.781 170 153.492 170.258 152.914 170.461C152.336 170.664 151.672 170.812 150.922 170.906C150.188 171 149.594 171.047 149.141 171.047C148.641 171.047 148.281 170.852 148.062 170.461C147.859 170.055 147.695 169.484 147.57 168.75L147.453 168.164C146.797 169.055 145.914 169.812 144.805 170.438C143.711 171.047 142.531 171.352 141.266 171.352ZM170.023 171.352C168.789 171.352 167.68 171.062 166.695 170.484C165.711 169.891 164.969 169.133 164.469 168.211L164.352 168.703C164.211 169.312 164.102 169.742 164.023 169.992C163.914 170.43 163.672 170.719 163.297 170.859C162.922 171 162.367 171.07 161.633 171.07H161.141C159.469 171.07 158.633 170.633 158.633 169.758V140.93C158.633 140.477 158.836 140.141 159.242 139.922C159.648 139.688 160.281 139.57 161.141 139.57H162.289C163.961 139.57 164.797 140.023 164.797 140.93V150.164C165.969 149.305 167.383 148.875 169.039 148.875C170.883 148.875 172.461 149.336 173.773 150.258C175.102 151.164 176.109 152.461 176.797 154.148C177.484 155.836 177.828 157.812 177.828 160.078C177.828 162.438 177.492 164.469 176.82 166.172C176.164 167.859 175.242 169.148 174.055 170.039C172.883 170.914 171.539 171.352 170.023 171.352ZM168.219 166.289C170.453 166.289 171.57 164.219 171.57 160.078C171.57 155.844 170.281 153.727 167.703 153.727C166.75 153.727 165.781 153.992 164.797 154.523V163.828C165.75 165.469 166.891 166.289 168.219 166.289Z" fill="white"/>
<path d="M56.5657 70.3232C56.5657 70.3232 56.5893 70.2993 56.6368 70.2277L56.5182 70.2993L56.5657 70.3232Z" fill="white"/>
<path d="M106.645 112.258C106.144 111.725 105.714 111.218 105.332 110.733C105.26 110.637 105.189 110.564 105.117 110.492C105.045 110.443 104.998 110.371 104.926 110.322C104.807 110.226 104.663 110.177 104.496 110.129C104.233 110.056 103.971 110.081 103.732 110.153C103.541 110.226 103.374 110.322 103.23 110.443C103.159 110.492 103.135 110.54 103.087 110.613L102.92 110.806L102.777 110.975L102.227 111.604C101.869 112.015 101.32 112.596 100.603 113.321C98.5735 115.328 96.3047 117.094 93.8688 118.544C93.224 118.931 92.5314 119.294 91.815 119.657C92.4837 119.947 93.1046 120.165 93.7255 120.431C94.7047 120.817 95.6838 121.229 96.9735 121.737C97.1883 121.833 97.4749 121.93 97.9048 122.075C98.1197 122.148 98.3585 122.22 98.6451 122.317C98.9317 122.414 99.266 122.487 99.6482 122.583C99.9347 122.656 100.365 122.728 100.794 122.825C101.009 122.873 101.248 122.897 101.463 122.921L101.797 122.97L102.132 122.994L102.753 123.043C102.944 123.066 103.111 123.066 103.254 123.066L103.732 123.091H104.138C104.377 123.091 104.735 123.091 105.117 123.066C105.929 123.019 106.717 122.897 107.505 122.752L108.222 122.607C108.46 122.559 108.675 122.487 108.866 122.438L109.44 122.269L109.941 122.099C110.252 121.979 110.538 121.906 110.777 121.81L111.35 121.567C111.661 121.447 111.971 121.325 112.258 121.18C112.544 121.035 112.807 120.939 113.07 120.817C113.595 120.576 114.073 120.358 114.55 120.165C115.028 119.971 115.505 119.753 116.007 119.536L116.413 119.343C114.216 118.303 112.138 117.045 110.204 115.57C108.962 114.554 107.744 113.467 106.645 112.258Z" fill="white"/>
<path d="M80.5667 88.1954C84.0534 88.1954 86.8715 85.3418 86.8715 81.8112C86.8715 78.2806 84.0534 75.427 80.5667 75.427C77.0801 75.427 74.262 78.2806 74.262 81.8112C74.262 85.3418 77.0801 88.1954 80.5667 88.1954Z" fill="white"/>
<path d="M125.178 87.2764C128.163 87.2764 130.599 84.8341 130.599 81.8112C130.599 78.7884 128.187 76.3218 125.201 76.3218C122.216 76.3218 119.78 78.7642 119.78 81.787C119.78 84.8098 122.192 87.2523 125.178 87.2764Z" fill="white"/>
<path d="M64.4226 57.7255C64.5897 57.4594 64.757 57.1934 64.9479 56.9274C65.139 56.6614 65.3301 56.3954 65.5212 56.1294C65.6167 56.0084 65.7361 55.8634 65.8316 55.7425L66.166 55.3555C66.3808 55.0895 66.6197 54.8477 66.8585 54.6059C67.36 54.098 67.8854 53.6386 68.4347 53.2275C69.0078 52.8164 69.6049 52.4536 70.2258 52.1151C70.5362 51.9458 70.8229 51.8007 71.1333 51.6556L71.2527 51.6073H71.2766L71.0855 51.2203C71.0139 51.0752 70.9423 50.9302 70.8467 50.785C70.5362 50.2046 70.2019 49.6726 69.8676 49.1164C68.5302 47.0125 67.0496 45.0054 65.4256 43.1192C63.8972 41.3296 62.4165 39.7578 61.127 38.452C59.8373 37.1461 58.7149 36.1304 57.9268 35.4292C57.1387 34.7278 56.6849 34.3409 56.6849 34.3409C56.6849 34.3409 56.2312 33.954 55.4431 33.2768C54.655 32.5997 53.4371 31.6567 51.9564 30.5684C50.2847 29.311 48.5413 28.126 46.7264 27.0377C45.6995 26.4091 44.6487 25.8529 43.574 25.345C43.0247 25.1032 42.4754 24.8614 41.9023 24.692C41.6396 24.5953 41.353 24.547 41.0664 24.4986C40.8276 24.4502 40.5888 24.4261 40.35 24.4502C40.3022 24.4502 40.2784 24.4502 40.2306 24.4744C40.2067 24.4744 40.1828 24.4986 40.1589 24.4986C40.1351 24.4986 40.1351 24.5228 40.1112 24.5228C40.1112 24.5228 40.1112 24.4986 40.0873 24.547C40.0157 24.6437 39.944 24.7405 39.8962 24.8371L39.8007 24.9823L39.7768 25.1273C39.5858 25.6594 39.4903 26.2156 39.4664 26.7718C39.4425 28.0534 39.538 29.311 39.753 30.5684C39.944 31.8501 40.1828 33.1076 40.4216 34.3409C40.6605 35.5742 40.8993 36.7591 41.1142 37.8958C41.4724 39.782 41.759 41.3296 41.8784 42.1277C41.9262 42.4179 41.95 42.6839 41.9978 42.9499L42.1889 43.8446C42.3799 44.5702 42.4993 45.3198 42.6426 46.0694L42.7382 46.6256C42.762 46.8191 42.7859 47.0125 42.8098 47.1818L42.977 48.3184L43.1441 49.4066C43.1919 49.7452 43.2396 50.1079 43.3113 50.4223C43.3829 50.7367 43.4307 51.0994 43.5263 51.4379C43.6218 51.7765 43.6934 52.1151 43.7889 52.4294C44.1711 53.7353 44.6725 54.9928 45.2935 56.2261C45.604 56.8307 45.9143 57.4111 46.2488 57.9431C46.4159 58.2332 46.5831 58.4993 46.7502 58.7653L47.0129 59.1522L47.2518 59.4907C47.8488 60.3613 48.4936 61.2077 49.1861 62.0299C49.7593 62.7312 50.2608 63.2632 50.5952 63.626C51.837 64.956 52.8161 65.9959 53.7236 67.0115L55.0849 68.5834C55.5148 69.0913 55.9685 69.6232 56.47 70.1552L56.5655 70.2278C57.1148 69.1154 57.5685 68.1965 58.094 67.2775C58.6911 66.2377 59.3597 65.222 60.1 64.2547C60.3389 63.9403 60.6732 63.4809 61.0791 62.8763L61.7478 61.909L61.9389 61.643L62.1538 61.3045C62.2971 61.0868 62.4643 60.8692 62.6076 60.6274C62.8942 60.1679 63.2047 59.6842 63.4912 59.2006C63.6345 58.9588 63.8017 58.6927 63.9689 58.4267C64.136 58.1607 64.2554 57.9914 64.4226 57.7255Z" fill="white"/>
<path d="M152.57 26.1672C152.57 26.0946 152.57 25.9979 152.545 25.9253C152.474 25.8528 152.355 25.8044 152.235 25.7802C152.092 25.7802 151.948 25.8286 151.83 25.877C151.351 26.0946 150.874 26.3606 150.468 26.6991C149.393 27.5456 148.414 28.4886 147.531 29.5527C146.432 30.786 144.975 32.6239 143.829 34.1958C142.682 35.7677 141.798 37.001 141.798 37.001C141.798 37.001 140.772 38.4761 139.53 40.314C138.288 42.1518 136.904 44.3283 136.092 45.6341L134.539 48.1007C133.536 49.7451 132.365 51.2928 131.028 52.6712L131.076 52.7196L131.625 53.1549C132.008 53.4935 132.462 53.832 132.939 54.2673L134.468 55.6941C134.993 56.2503 135.542 56.8307 136.115 57.4836L136.951 58.4993L137.381 59.0312C137.524 59.2247 137.643 59.4182 137.786 59.5875L138.598 60.7482C138.862 61.1594 139.124 61.5947 139.387 62.0057C140.414 63.7227 141.298 65.5364 141.99 67.4226C142.11 67.205 142.205 67.0115 142.325 66.7938C142.635 66.1651 142.897 65.5605 143.16 64.956C143.686 63.6984 144.235 62.3927 144.975 60.7241C145.333 59.9018 146.026 58.2816 146.934 55.5974C147.793 53.0823 148.7 50.0112 149.489 46.8191C150.277 43.6269 150.969 40.2897 151.495 37.2428C151.996 34.1958 152.33 31.5115 152.474 29.5769C152.545 28.6096 152.57 27.8358 152.57 27.3038C152.57 26.7717 152.57 26.5058 152.57 26.5058V26.1672Z" fill="white"/>
<path d="M157.991 26.3123L157.967 25.877C157.967 25.6835 157.943 25.3691 157.895 24.9097C157.871 24.6196 157.823 24.3293 157.776 24.015V23.9908C157.704 23.5071 157.585 23.0235 157.418 22.5398L157.155 21.9111C157.036 21.6692 156.916 21.4274 156.773 21.2098C156.486 20.7503 156.128 20.3392 155.698 20.0007C155.125 19.517 154.433 19.1784 153.692 19.0092C153.406 18.9366 153.119 18.9124 152.832 18.8883L152.498 18.8641C152.355 18.8641 152.187 18.8641 152.02 18.8641H151.925C151.567 18.8641 151.208 18.9124 150.85 18.9608C150.492 19.0092 150.109 19.1059 149.752 19.2026L149.417 19.2994C148.987 19.4445 148.582 19.6137 148.2 19.8072C146.527 20.6536 145.167 21.9353 144.163 22.9509C143.686 23.4346 143.208 23.9666 142.754 24.4502C142.229 25.0306 141.656 25.6111 141.106 26.1914C140.151 27.1587 139.124 28.0292 138.026 28.8031C136.975 29.5286 135.852 30.109 134.658 30.5443L132.342 31.439L132.175 31.5115C131.912 31.6325 131.65 31.7534 131.411 31.8743L131.028 32.0677L130.766 32.1887C130.456 32.3338 130.144 32.503 129.859 32.6723C128.593 33.3736 127.374 34.1716 126.204 35.0422L126.181 35.0664L125.775 35.3807C125.488 35.5984 125.201 35.816 124.939 36.0578L123.769 37.0735L122.957 37.8473C121.571 39.1532 120.377 40.6283 119.398 42.2486C119.279 42.442 119.159 42.6597 119.04 42.8531L118.753 42.7322C116.079 41.7407 113.356 40.9427 110.586 40.314C104.926 39.0565 99.1228 38.5729 93.3196 38.9356C92.8658 38.9597 92.4359 38.9839 92.0061 39.0323C91.8151 39.0565 91.624 39.0807 91.4329 39.0807C91.1941 39.1049 90.9553 39.1291 90.7165 39.1532L90.4538 39.1774L89.618 39.2741C89.2358 39.3226 88.8538 39.3709 88.5194 39.4192L87.9701 39.4918C86.8955 39.6611 86.1551 39.782 85.6297 39.9029C83.958 40.2173 82.3102 40.7251 80.734 41.4022C80.1847 40.1689 79.4922 39.0082 78.6563 37.9441C78.107 37.2187 77.51 36.5416 76.8652 35.8886C76.4353 35.4533 75.9816 35.018 75.4562 34.5586L75.1219 34.2925C74.9308 34.1474 74.7637 34.0024 74.5964 33.8815L74.4054 33.7363C74.2144 33.5912 73.9756 33.3978 73.689 33.2285L73.5457 33.1318C73.3068 32.9625 73.0442 32.7932 72.7337 32.5997L72.7098 32.5756C72.4232 32.4063 72.0889 32.1887 71.7068 31.9952L71.2292 31.7534C71.0858 31.6808 70.9426 31.6082 70.7993 31.5599L70.1545 31.2697L68.9843 30.8102L67.3126 30.254L66.8827 30.109C66.4051 29.9639 65.9752 29.8187 65.5931 29.6737H65.5692L65.1872 29.5286L64.6856 29.3351L63.8259 28.924C62.7513 28.4404 61.7243 27.86 60.7451 27.1587L60.7213 27.1345C59.6705 26.3606 58.6914 25.5385 57.7361 24.6437L56.8286 23.8215C56.0644 23.1202 55.2763 22.3705 54.4643 21.6692C53.2225 20.581 52.0523 19.6863 50.9537 18.9124C49.7836 18.0419 48.5417 17.268 47.2521 16.6151C46.5835 16.2765 45.9148 15.9622 45.2221 15.7203L45.1506 15.6962C44.4102 15.4302 43.646 15.2367 42.8579 15.1158C41.9982 14.9707 41.1384 14.9707 40.2787 15.0674C39.3951 15.1641 38.5353 15.4302 37.7473 15.7929L37.6995 15.8171C37.0069 16.1556 36.3621 16.6151 35.7651 17.1471L35.7173 17.1955C35.5024 17.4131 35.2875 17.6308 35.0725 17.8726L34.9292 18.0661C34.7859 18.2353 34.6665 18.4046 34.5471 18.5739C34.1411 19.1543 33.7829 19.783 33.4963 20.4359L33.2814 20.9196C33.2336 21.0405 33.2098 21.1372 33.1859 21.1856C33.162 21.234 33.0904 21.4516 32.9948 21.7176L32.9709 21.7902C32.7799 22.3464 32.6366 22.9267 32.5172 23.5071C32.35 24.3535 32.2067 25.2241 32.1112 26.0947L32.0873 26.3365C32.0634 26.5058 32.0634 26.6992 32.0396 26.8927L32.0157 27.6665C31.9918 28.2469 31.9918 28.8031 32.0396 29.3835L32.0634 29.722C32.2067 31.173 32.5172 32.5997 32.9709 34.0024C33.3769 35.1873 33.8784 36.3481 34.3561 37.4605L34.4994 37.8232C35.0248 39.0082 35.4546 40.1689 35.8606 41.3297L36.0039 41.7407C36.1472 42.2245 36.3144 42.6597 36.4099 43.095V43.1434L36.5293 43.5302C36.5771 43.6996 36.6248 43.8931 36.6726 44.0623L36.9114 45.0779L36.9353 45.1505C37.0308 45.5374 37.1263 45.9969 37.198 46.4806L37.2935 47.0609L37.389 47.5445C37.389 47.6171 37.4129 47.6897 37.4129 47.7622L37.7473 50.1563V50.2288C37.7711 50.3256 37.7711 50.4465 37.795 50.5432C37.8428 50.8334 37.8905 51.172 37.9622 51.5347L38.0338 51.8732C38.0816 52.1635 38.1532 52.4779 38.2488 52.8164C38.2727 52.9373 38.2965 53.0582 38.3443 53.155C38.4159 53.4451 38.4876 53.7112 38.5592 53.9771C39.0369 55.5974 39.6578 57.1693 40.422 58.6685C40.8041 59.4424 41.1862 60.0953 41.5444 60.7241C41.7115 61.0142 41.9026 61.3045 42.0459 61.5463L42.7385 62.6103C43.4311 63.6502 44.1953 64.6417 45.0072 65.5847C45.6282 66.3344 46.1536 66.9148 46.655 67.4227L46.679 67.4468C47.7297 68.5592 48.9 69.5507 50.1418 70.4455C49.9746 70.9533 49.8074 71.437 49.6642 71.9448C49.1865 73.6859 48.876 75.4754 48.7566 77.2649L48.7327 77.4342C48.685 78.0871 48.5895 79.1995 48.4939 81.2551C48.3984 83.3105 48.3984 86.5752 48.5417 89.2837C48.6133 90.5411 48.7089 91.8229 48.8283 92.8868C48.8521 93.2254 48.9 93.5156 48.9238 93.7574L49.1626 95.6678V95.692C49.2582 96.3933 49.4492 97.5058 49.7119 98.8357C49.9746 100.166 50.309 101.52 50.691 102.802C51.1448 104.374 51.6224 105.655 51.9329 106.477C52.4106 107.711 52.9598 108.92 53.5807 110.105C53.7479 110.443 53.915 110.709 54.0584 110.951C54.1061 111.048 54.1778 111.145 54.2255 111.241L54.7509 112.136L54.7748 112.185C55.8256 113.877 57.1391 115.377 58.6914 116.634C59.3123 117.142 59.9809 117.577 60.6736 117.989C60.7451 118.085 60.793 118.182 60.8645 118.279C61.3661 119.004 61.9154 119.681 62.5124 120.285C63.1095 120.866 63.7303 121.422 64.3991 121.906L64.4468 121.93C65.0916 122.389 65.7842 122.801 66.5007 123.164C68.8887 124.373 71.6113 125.146 74.7875 125.485C76.0772 125.63 77.3906 125.702 78.704 125.702H78.7519C80.0175 125.702 81.3072 125.606 82.5729 125.461H82.5968C83.7909 125.315 85.0088 125.098 86.179 124.807C86.6328 124.711 87.0387 124.591 87.3969 124.493L87.8268 124.373L87.9701 124.324L88.3761 124.203C88.7582 124.083 89.1403 123.961 89.5702 123.816C89.8806 123.696 90.1911 123.574 90.5254 123.453C90.7165 123.623 90.8836 123.768 91.0986 123.937L91.1225 123.961C92.3404 124.929 93.6778 125.702 95.1106 126.259C95.3973 126.379 95.7316 126.501 96.257 126.67C96.5197 126.767 96.7824 126.839 97.0451 126.936L97.1645 126.984C97.5466 127.105 97.9526 127.202 98.3824 127.323C98.7168 127.419 99.0273 127.468 99.3855 127.541L99.7915 127.613L99.887 127.637C100.078 127.661 100.269 127.686 100.46 127.734L101.081 127.831L102.299 127.951H102.371C102.562 127.951 102.729 127.976 102.872 127.976L103.732 128H104.448C104.687 128 105.021 128 105.404 127.976C106.431 127.904 107.434 127.782 108.437 127.565L109.249 127.395L109.32 127.372C109.535 127.323 109.726 127.274 109.917 127.202L110.108 127.154L110.634 127.009L111.541 126.718L111.852 126.622C112.09 126.525 112.329 126.452 112.592 126.332L113.213 126.065C113.643 125.896 114.049 125.678 114.455 125.461C114.765 125.292 115.076 125.123 115.362 124.953L115.458 124.905C116.031 124.542 116.58 124.13 117.106 123.696L117.249 123.574C117.392 123.429 117.559 123.308 117.703 123.164C118.562 123.502 119.422 123.792 120.282 124.034C122.766 124.784 125.345 125.243 127.924 125.412C130.79 125.606 133.679 125.292 136.449 124.493C137.978 124.034 139.435 123.357 140.773 122.487C142.229 121.543 143.494 120.334 144.498 118.931L144.521 118.907C145.023 118.182 145.453 117.432 145.835 116.634C146.527 115.086 146.934 113.442 147.077 111.773C147.149 111.12 147.173 110.492 147.149 109.839V109.331C147.124 108.992 147.101 108.726 147.077 108.46C147.077 108.364 147.053 108.267 147.053 108.194L146.981 107.517L146.838 106.84C146.814 106.743 146.814 106.671 146.791 106.574C146.743 106.332 146.671 106.018 146.576 105.679L146.289 104.736C146.217 104.47 146.122 104.228 146.002 103.987L145.62 103.068C145.525 102.85 145.453 102.705 145.382 102.56L145.167 102.173C145.047 101.955 144.952 101.738 144.832 101.544L144.259 100.601L144.211 100.529C143.758 99.8272 143.279 99.1985 142.802 98.5697C143.017 98.2554 143.232 97.941 143.447 97.6267C144.45 95.9822 145.214 94.2169 145.74 92.3548L145.835 91.9921C146.337 90.1059 146.719 88.1954 146.958 86.2609V86.2125L147.006 85.8014C147.053 85.487 147.101 85.1485 147.124 84.7857L147.244 83.4073L147.268 82.9962C147.316 82.1014 147.363 81.1825 147.34 80.1668C147.316 77.9179 147.124 75.6689 146.766 73.4441C146.527 72.0173 146.194 70.5905 145.787 69.1879C146.217 68.7769 146.623 68.3416 147.006 67.8821C148.223 66.3828 149.227 64.7384 149.966 62.9731C150.444 61.909 151.161 60.1679 152.116 57.4111C153.071 54.6542 154.003 51.438 154.815 48.1733C155.627 44.9087 156.367 41.4264 156.892 38.1859C157.394 35.2115 157.752 32.2854 157.919 29.9881C157.991 28.7548 158.015 27.5456 157.991 26.3123ZM154.91 29.7463C154.767 31.7776 154.433 34.5586 153.907 37.654C153.381 40.7493 152.689 44.1349 151.877 47.3995C151.065 50.6641 150.158 53.8078 149.25 56.3712C148.295 59.128 147.578 60.8208 147.196 61.6914C146.551 63.2149 145.715 64.6174 144.665 65.8991C144.188 66.4553 143.686 66.9874 143.112 67.4468C142.826 67.6886 142.539 67.8821 142.229 68.0998C142.897 70.0102 143.399 71.9689 143.758 73.9519C144.091 76.0316 144.283 78.1114 144.283 80.2152C144.306 81.2308 144.259 82.1982 144.211 83.1413C144.163 83.6249 144.139 84.0844 144.091 84.5197C144.044 84.955 143.996 85.4145 143.948 85.8497C143.709 87.7602 143.327 89.6464 142.802 91.5085C142.372 93.1045 141.727 94.628 140.868 96.0064C140.271 96.9495 139.579 97.8442 138.79 98.6423C139.029 98.86 139.244 99.0776 139.459 99.3194C140.294 100.19 141.035 101.157 141.703 102.173L142.205 102.971C142.348 103.237 142.492 103.527 142.635 103.817C142.707 103.962 142.779 104.083 142.85 104.253L143.041 104.688L143.232 105.123C143.304 105.268 143.376 105.413 143.423 105.559C143.519 105.873 143.614 106.187 143.709 106.502C143.805 106.816 143.853 107.13 143.924 107.469L144.02 107.953L144.068 108.436C144.091 108.775 144.139 109.089 144.163 109.428C144.188 110.081 144.163 110.758 144.116 111.41C144.02 112.765 143.686 114.095 143.136 115.328C142.85 115.957 142.515 116.562 142.11 117.118C141.321 118.23 140.319 119.173 139.172 119.923C138.05 120.648 136.856 121.205 135.59 121.592C133.154 122.293 130.623 122.559 128.115 122.389C125.751 122.244 123.41 121.81 121.142 121.133C119.733 120.697 118.324 120.189 116.986 119.584C116.819 119.778 116.652 119.971 116.485 120.165C116.103 120.552 115.72 120.939 115.291 121.302C114.837 121.688 114.383 122.026 113.882 122.317C113.619 122.462 113.332 122.631 113.046 122.801C112.735 122.97 112.425 123.115 112.09 123.26L111.47 123.526C111.231 123.623 110.92 123.72 110.562 123.865L110.013 124.058L109.368 124.228C109.153 124.275 108.914 124.373 108.651 124.421L107.84 124.591C106.98 124.76 106.096 124.88 105.213 124.929C104.783 124.953 104.401 124.953 104.114 124.953H103.66L103.135 124.929C102.944 124.929 102.753 124.929 102.562 124.905L101.869 124.832L101.511 124.807L101.129 124.76C100.89 124.735 100.627 124.687 100.388 124.638C99.9109 124.542 99.4571 124.469 99.1228 124.373C98.7168 124.275 98.3347 124.179 98.0242 124.083C97.7138 123.986 97.4511 123.914 97.2123 123.816C96.7585 123.647 96.4481 123.551 96.2092 123.453C94.2748 122.704 92.5553 121.471 91.218 119.85C90.3822 120.238 89.4986 120.624 88.5433 120.939C88.0657 121.132 87.5641 121.277 87.0387 121.422C86.5133 121.567 86.0118 121.712 85.4626 121.833C84.364 122.099 83.2655 122.293 82.1669 122.414C79.8265 122.68 77.4384 122.68 75.098 122.414C72.686 122.172 70.1784 121.592 67.838 120.407C67.2409 120.092 66.6916 119.753 66.1424 119.391C65.5931 119.004 65.0916 118.568 64.6139 118.085C64.1363 117.602 63.7065 117.07 63.3244 116.513C63.1333 116.248 62.9901 115.957 62.8228 115.667C62.0109 115.255 61.2467 114.748 60.5302 114.191C59.2407 113.151 58.1421 111.895 57.2585 110.468L56.7808 109.694C56.6137 109.379 56.3987 109.017 56.1838 108.606C55.6107 107.517 55.1091 106.429 54.6554 105.292C54.2733 104.325 53.8673 103.14 53.4851 101.883C53.1031 100.625 52.912 99.4162 52.6732 98.2312C52.4344 97.0462 52.2672 96.0064 52.1478 95.2567C52.0284 94.5071 51.9807 94.0476 51.9807 94.0476L51.9329 93.6607C51.909 93.4189 51.8613 93.0562 51.8135 92.5966C51.7179 91.7019 51.6224 90.4686 51.5269 89.1385C51.3597 86.4543 51.3836 83.2864 51.4791 81.4243C51.5747 79.2479 51.6702 78.1839 51.7179 77.5552C51.8373 75.9591 52.1001 74.363 52.53 72.8153C52.8881 71.582 53.318 70.3729 53.8434 69.2122C53.4136 68.9945 52.9598 68.7527 52.5538 68.4866C51.1686 67.6161 49.9268 66.5762 48.8044 65.3913C48.4462 65.0044 47.8969 64.4482 47.276 63.6985C46.5356 62.8279 45.8431 61.909 45.1983 60.9659L44.9356 60.579L44.649 60.0953C44.4579 59.8051 44.2669 59.515 44.0997 59.2006C43.7415 58.596 43.4072 57.9673 43.0729 57.3143C42.4042 55.9843 41.8549 54.5817 41.425 53.1307C41.3056 52.768 41.234 52.3811 41.1384 52.0183C41.0429 51.6556 40.9713 51.2687 40.8996 50.8817C40.828 50.4949 40.7802 50.1079 40.7086 49.721L40.5414 48.6086L40.3981 47.5445C40.3742 47.3753 40.3503 47.1818 40.3265 47.0126L40.2309 46.4806C40.0876 45.7792 39.9921 45.0538 39.8011 44.3767L39.5623 43.3369C39.4667 42.9982 39.3712 42.6597 39.2757 42.3211C39.1085 41.644 38.8697 40.9911 38.6547 40.3382C38.201 39.0323 37.7234 37.799 37.198 36.5899C36.6726 35.3807 36.1711 34.1959 35.7651 32.9867C35.3591 31.8259 35.1203 30.641 35.0009 29.4319C34.9531 28.8998 34.9292 28.3436 34.9531 27.8116C34.9531 27.5698 34.977 27.3038 34.977 27.062C34.977 26.8201 35.0248 26.6025 35.0248 26.3848C35.0964 25.6352 35.2158 24.8855 35.383 24.1359C35.4785 23.6522 35.6218 23.1686 35.7651 22.6849C35.8845 22.3464 35.9561 22.1771 35.9561 22.1771C35.9561 22.1771 35.98 22.1287 36.0039 22.0562L36.1711 21.6934C36.386 21.1856 36.6487 20.7261 36.9592 20.2908C37.0547 20.1458 37.198 20.0007 37.3174 19.8314C37.4607 19.6621 37.604 19.517 37.7711 19.3719C38.1294 19.0334 38.5592 18.7432 39.013 18.5255C39.5384 18.2837 40.0876 18.1144 40.6608 18.0419C41.2578 17.9693 41.8549 17.9935 42.4519 18.0902C43.049 18.187 43.646 18.3321 44.2191 18.5497C44.8162 18.7673 45.3894 19.0092 45.9386 19.2994C47.1088 19.9039 48.2313 20.6052 49.282 21.3791C50.3806 22.1529 51.503 23.0477 52.5777 23.9666C53.6524 24.8855 54.7271 25.9253 55.7778 26.8927C56.8048 27.86 57.9033 28.7789 59.0496 29.6011C60.172 30.3991 61.3661 31.1005 62.6318 31.6567L63.5632 32.0677C63.8737 32.1887 64.208 32.3096 64.5185 32.4305C65.1393 32.6965 65.808 32.89 66.429 33.0835L67.432 33.3978L67.9574 33.5671L68.9604 33.954L69.438 34.1716C69.6052 34.2442 69.7485 34.3168 69.9157 34.3892L70.3694 34.6311C70.6799 34.7762 70.9664 34.9696 71.2531 35.1389C71.5396 35.3082 71.8262 35.5016 72.0889 35.6951C72.3516 35.8886 72.6143 36.082 72.877 36.2755C72.9964 36.3722 73.1397 36.469 73.2591 36.5657L73.5696 36.8317C73.9756 37.1944 74.3815 37.5572 74.7637 37.9683C75.3368 38.5245 75.8622 39.1291 76.3398 39.782C77.3667 41.0878 78.1548 42.5872 78.6563 44.1832C78.7996 44.6911 78.9429 45.1988 79.0384 45.7067L79.2295 45.6583C80.0175 45.1505 80.8296 44.6911 81.6893 44.3041C83.1699 43.6512 84.6984 43.1675 86.2745 42.8773C86.7761 42.7807 87.5403 42.6355 88.4955 42.4904C88.9732 42.4179 89.4986 42.3454 90.0479 42.2728L90.8359 42.176C91.1224 42.1519 91.4091 42.1035 91.7195 42.0793C92.3165 42.031 92.9136 41.9584 93.5345 41.9342C99.0511 41.5957 104.592 42.031 109.989 43.2401C112.64 43.8446 115.243 44.5943 117.798 45.5374L119.541 46.2145C119.9 46.3597 120.258 46.5047 120.592 46.6498C120.736 46.3112 120.855 45.9969 120.998 45.6826C121.285 45.0296 121.619 44.4008 122.001 43.7721C122.861 42.3695 123.888 41.0878 125.082 39.9754L125.512 39.5644L125.775 39.3226L126.944 38.3068C127.279 38.0408 127.661 37.7506 128.091 37.4121C129.165 36.614 130.264 35.8886 131.435 35.2357C131.745 35.0422 132.103 34.8971 132.437 34.7036C132.772 34.5102 133.13 34.3651 133.489 34.1959L135.208 33.5429L135.733 33.3494C137.166 32.8174 138.527 32.1161 139.769 31.2455C141.035 30.3508 142.205 29.3593 143.279 28.2469C144.355 27.1829 145.357 26.0221 146.361 25.0064C147.363 23.9908 148.415 23.0235 149.609 22.4431C149.895 22.298 150.181 22.1771 150.492 22.0804C150.778 21.9836 151.065 21.9353 151.352 21.8869C151.615 21.8385 151.877 21.8143 152.14 21.8143C152.212 21.8143 152.259 21.8143 152.331 21.8143H152.522C152.689 21.8143 152.88 21.8385 153.047 21.8627C153.334 21.9111 153.596 22.0562 153.811 22.2496C153.979 22.3947 154.146 22.564 154.265 22.7816C154.361 22.9267 154.433 23.0718 154.504 23.2169L154.576 23.3862L154.6 23.4588C154.695 23.7731 154.79 24.1117 154.838 24.4502C154.886 24.7162 154.91 24.9581 154.934 25.1515C154.982 25.5385 154.982 25.8044 154.982 25.9979L155.005 26.4091C155.03 27.5456 155.005 28.658 154.91 29.7463Z" fill="white"/>
<path d="M136.975 99.4644C136.784 99.2711 136.569 99.1017 136.378 98.9324C136.187 98.7632 135.972 98.5697 135.781 98.4246C135.375 98.0861 134.969 97.7717 134.539 97.4573C134.109 97.1429 133.703 96.8528 133.297 96.5625C132.891 96.2724 132.462 96.0064 132.055 95.7404L131.124 95.16L130.933 95.0633C130.575 94.8698 130.241 94.6521 129.93 94.4829C129.309 94.1444 128.807 93.8783 128.45 93.7091C127.327 93.1286 126.419 92.645 125.584 92.1614C125.393 92.0405 125.201 91.9437 125.01 91.8711C118.347 88.7758 114.264 87.5425 113.237 86.8895C108.938 68.6801 111.995 51.2445 112.974 46.5773C111.828 46.2387 110.658 45.9485 109.464 45.6583C106.813 45.0537 104.114 44.6669 101.392 44.4492C99.8632 44.3283 98.3586 44.2799 96.9018 44.2799C97.6422 50.0112 100.317 74.1938 93.7256 86.8653C91.7911 87.9778 89.7851 88.9451 87.7074 89.7673C86.6089 90.3476 82.1669 92.1855 79.0385 93.5639C78.107 94.0476 77.1279 94.5312 75.8622 95.1358C74.6203 95.7404 73.4502 96.4175 72.3038 97.1672L72.2322 97.2155L72.065 97.3364L71.7307 97.554C71.5157 97.6991 71.3008 97.8684 71.0859 98.0377C70.656 98.3521 70.2261 98.6906 69.8202 99.0534C68.9843 99.7788 68.1962 100.553 67.4559 101.399C65.9274 103.116 64.7812 105.123 64.0647 107.3C63.7303 108.388 63.5393 109.524 63.5393 110.686C63.5393 111.822 63.7543 112.935 64.1602 113.974C64.3751 114.482 64.6379 114.99 64.9483 115.449C65.2588 115.909 65.6171 116.344 66.023 116.755C66.429 117.166 66.8589 117.529 67.3126 117.843C67.7902 118.181 68.2679 118.472 68.7694 118.738C70.8232 119.778 73.1158 120.31 75.3845 120.552C77.6056 120.817 79.8266 120.817 82.0475 120.552C83.0983 120.431 84.1252 120.238 85.1521 119.995C85.6537 119.899 86.1313 119.73 86.6089 119.608C87.0865 119.488 87.5403 119.318 88.0179 119.149C89.7374 118.544 91.3852 117.771 92.9375 116.852C95.254 115.473 97.4033 113.829 99.3139 111.918C100.006 111.241 100.508 110.686 100.866 110.298L101.368 109.694C101.368 109.694 101.415 109.645 101.487 109.549L101.654 109.355C101.75 109.258 101.845 109.137 101.989 109.017C102.514 108.533 103.159 108.243 103.851 108.17C104.066 107.493 104.186 106.792 104.233 106.066C104.281 105.558 104.281 105.026 104.257 104.519C104.257 104.253 104.233 103.962 104.21 103.672C104.21 103.6 104.21 103.527 104.186 103.455L104.162 103.213C104.138 103.043 104.114 102.874 104.09 102.681L104.066 102.56C103.517 102.463 102.992 102.294 102.49 102.076C101.487 102.004 100.532 101.689 99.6721 101.181C99.4333 101.036 99.1945 100.843 98.9317 100.674C98.6929 100.456 98.4541 100.238 98.2392 100.021C97.7616 99.4886 97.3317 98.9083 96.9974 98.2553C96.9018 98.0861 96.7824 97.8684 96.6869 97.6025C96.6152 97.4815 96.5675 97.3364 96.4958 97.1672C96.472 97.0946 96.4242 97.022 96.4003 96.9253L96.2809 96.5867C96.2332 96.4175 96.1853 96.2482 96.1376 96.0548C96.1138 95.958 96.0899 95.8613 96.0659 95.7887L96.0421 95.6436L96.0182 95.5711C96.0182 95.5469 96.0421 95.5469 96.0659 95.5227C96.2093 95.3777 96.3287 95.2325 96.4958 95.0874L96.9257 94.6763C97.0929 94.5071 97.3079 94.3378 97.4988 94.1685L97.8093 93.9025L98.1675 93.6606C99.1945 92.9352 100.317 92.4032 101.511 92.0646C102.777 91.7261 104.114 91.6293 105.428 91.7744C106.454 91.8953 107.457 92.113 108.437 92.4515C108.795 92.5724 109.105 92.6933 109.296 92.7659C109.487 92.8385 109.607 92.8868 109.607 92.8868L109.774 92.9594C109.893 93.0077 110.084 93.1045 110.347 93.2253C110.61 93.3463 110.968 93.5397 111.422 93.7815C111.637 93.9025 111.899 94.0476 112.162 94.241C112.305 94.3378 112.449 94.4103 112.592 94.5071L112.711 94.5796L112.902 94.7006L113.094 94.8456L113.308 95.0149C113.404 95.0874 113.547 95.1842 113.667 95.3051L113.786 95.4018L113.834 95.4501V95.5227L113.762 95.8371C113.714 96.0548 113.643 96.3207 113.547 96.5867L113.476 96.7802L113.428 96.9011C113.404 96.9737 113.38 97.0463 113.332 97.1429C113.022 97.9168 112.664 98.6423 112.21 99.3194C111.708 100.093 111.087 100.795 110.395 101.399C109.774 101.931 109.081 102.391 108.365 102.729C107.72 103.019 107.075 103.261 106.383 103.406L106.048 103.479H106.025V103.503C106.025 103.842 106.025 104.18 105.977 104.519C105.905 105.123 105.762 105.728 105.547 106.308C105.308 106.961 104.95 107.566 104.496 108.098C104.639 108.122 104.807 108.146 104.95 108.17C105.308 108.267 105.642 108.412 105.953 108.63C106.12 108.751 106.263 108.872 106.407 108.992C106.55 109.137 106.693 109.307 106.765 109.403C107.123 109.863 107.529 110.347 108.007 110.831C109.034 111.942 110.18 112.982 111.374 113.901C114.455 116.271 117.965 118.061 121.667 119.149C123.792 119.802 125.99 120.189 128.21 120.334C130.503 120.503 132.82 120.261 135.04 119.608C136.139 119.27 137.19 118.786 138.145 118.181C139.579 117.263 140.701 115.957 141.417 114.409C141.656 113.901 141.823 113.345 141.967 112.813C142.11 112.258 142.182 111.701 142.229 111.12C142.277 110.54 142.3 109.984 142.277 109.403C142.277 109.113 142.229 108.847 142.182 108.557L142.133 108.122L142.038 107.711C141.967 107.445 141.942 107.155 141.847 106.889C141.752 106.622 141.68 106.356 141.585 106.091C141.536 105.945 141.513 105.824 141.441 105.679L141.273 105.293L141.106 104.906C141.059 104.785 140.988 104.664 140.916 104.543C140.796 104.301 140.653 104.035 140.533 103.793L140.104 103.092C139.507 102.173 138.814 101.302 138.05 100.504C137.763 100.214 137.357 99.8514 136.975 99.4644ZM110.037 85.7771C109.678 85.7771 109.32 85.6805 108.986 85.5353C108.078 85.1484 107.123 84.834 106.144 84.6405C105.619 84.5196 105.093 84.4471 104.568 84.3987C104.353 84.3746 104.186 84.3746 104.066 84.3746H103.183C102.657 84.3987 102.132 84.4713 101.607 84.5681C101.033 84.689 100.484 84.834 99.9347 85.0275C99.6959 85.1 99.4571 85.2209 99.2661 85.2935C99.0751 85.3661 98.9317 85.4386 98.8362 85.487C98.1198 85.8255 97.5705 85.7771 96.6391 85.6805C96.9018 84.7857 97.2123 84.2053 98.0243 83.77C98.1437 83.7216 98.3109 83.6249 98.5258 83.5282C98.7407 83.4314 99.0034 83.3105 99.29 83.2138C99.9347 82.972 100.58 82.8027 101.248 82.6818C101.845 82.5609 102.466 82.5125 103.087 82.4642C103.326 82.4642 103.541 82.4642 103.684 82.4642H104.114C104.305 82.4642 104.496 82.4642 104.687 82.4883C105.308 82.5367 105.905 82.6092 106.502 82.7543C107.601 82.9961 108.675 83.3348 109.702 83.8184C110.538 84.2053 110.873 84.7615 111.159 85.6562C110.825 85.7288 110.419 85.7771 110.037 85.7771Z" fill="white"/>
</svg>
