<svg width="190" height="184" viewBox="0 0 190 184" fill="none" xmlns="http://www.w3.org/2000/svg">
<path d="M14.9609 171C14.3828 171 13.9609 170.867 13.6953 170.602C13.4297 170.336 13.2969 169.914 13.2969 169.336V143.484C13.2969 142.906 13.4297 142.492 13.6953 142.242C13.9609 141.977 14.3828 141.844 14.9609 141.844H24.2891C27.1484 141.844 29.5703 142.406 31.5547 143.531C33.5547 144.641 35.0625 146.281 36.0781 148.453C37.1094 150.625 37.625 153.273 37.625 156.398C37.625 159.539 37.1094 162.195 36.0781 164.367C35.0625 166.539 33.5547 168.188 31.5547 169.312C29.5703 170.438 27.1484 171 24.2891 171H14.9609ZM24.2891 165.539C26.5078 165.539 28.1875 164.766 29.3281 163.219C30.4688 161.656 31.0391 159.383 31.0391 156.398C31.0391 153.43 30.4688 151.172 29.3281 149.625C28.1875 148.062 26.5078 147.281 24.2891 147.281H19.7656V165.539H24.2891ZM47.3047 171.352C45.1797 171.352 43.6172 170.797 42.6172 169.688C41.6328 168.562 41.1406 167.078 41.1406 165.234C41.1406 163.844 41.4297 162.594 42.0078 161.484C42.5859 160.359 43.7578 159.414 45.5234 158.648C47.2891 157.883 49.8125 157.5 53.0938 157.5V156.117C53.0938 155.305 52.8359 154.703 52.3203 154.312C51.8047 153.922 50.9844 153.727 49.8594 153.727C48.9219 153.727 48.1172 153.828 47.4453 154.031C46.7734 154.219 46.0469 154.477 45.2656 154.805C44.8594 154.992 44.6094 155.086 44.5156 155.086C44.2344 155.086 43.9219 154.875 43.5781 154.453C43.25 154.031 42.9609 153.547 42.7109 153C42.4609 152.453 42.3359 152.039 42.3359 151.758C42.3359 151.273 42.6797 150.812 43.3672 150.375C44.0703 149.922 45.0312 149.562 46.25 149.297C47.4688 149.016 48.8203 148.875 50.3047 148.875C53.4297 148.875 55.7031 149.5 57.125 150.75C58.5469 151.984 59.2578 153.68 59.2578 155.836V163.641C59.2578 164.938 59.2891 165.945 59.3516 166.664C59.4297 167.383 59.5312 168.094 59.6562 168.797C59.7344 169.219 59.7734 169.516 59.7734 169.688C59.7734 170 59.4766 170.258 58.8828 170.461C58.3047 170.664 57.6406 170.812 56.8906 170.906C56.1406 171 55.5391 171.047 55.0859 171.047C54.6016 171.047 54.25 170.844 54.0312 170.438C53.8281 170.016 53.6641 169.445 53.5391 168.727C53.5234 168.633 53.5078 168.539 53.4922 168.445C53.4766 168.352 53.4531 168.258 53.4219 168.164C53.2656 168.461 52.9297 168.859 52.4141 169.359C51.9141 169.859 51.2266 170.32 50.3516 170.742C49.4766 171.148 48.4609 171.352 47.3047 171.352ZM49.3438 166.453C50.125 166.453 50.8594 166.211 51.5469 165.727C52.2344 165.227 52.75 164.594 53.0938 163.828V161.531C49.2031 161.531 47.2578 162.555 47.2578 164.602C47.2578 165.148 47.4375 165.594 47.7969 165.938C48.1719 166.281 48.6875 166.453 49.3438 166.453ZM73.0391 179.836C66.4297 179.836 63.125 177.914 63.125 174.07C63.125 172.992 63.4453 172.039 64.0859 171.211C64.7422 170.383 65.6875 169.727 66.9219 169.242L66.9453 169.078C66.3828 168.781 65.9453 168.359 65.6328 167.812C65.3203 167.266 65.1641 166.648 65.1641 165.961C65.1641 165.258 65.375 164.609 65.7969 164.016C66.2344 163.422 66.8594 162.914 67.6719 162.492C66.6094 161.898 65.7734 161.086 65.1641 160.055C64.5703 159.023 64.2734 157.766 64.2734 156.281C64.2734 153.75 65.0938 151.883 66.7344 150.68C68.3906 149.477 70.5625 148.875 73.25 148.875C74.375 148.875 75.4453 148.984 76.4609 149.203H83.1641C83.6016 149.203 83.9219 149.375 84.125 149.719C84.3281 150.047 84.4297 150.57 84.4297 151.289V151.992C84.4297 153.305 84.0938 153.961 83.4219 153.961C83.1875 153.961 82.8672 153.945 82.4609 153.914C82.0703 153.883 81.7891 153.844 81.6172 153.797L81.5469 153.961C81.7344 154.211 81.8906 154.562 82.0156 155.016C82.1406 155.453 82.2031 155.875 82.2031 156.281C82.2031 158.766 81.4219 160.617 79.8594 161.836C78.2969 163.039 76.25 163.641 73.7188 163.641C72.0156 163.641 71.1641 164.023 71.1641 164.789C71.1641 165.133 71.3359 165.406 71.6797 165.609C72.0234 165.797 72.4609 165.945 72.9922 166.055C73.5391 166.164 74.3125 166.281 75.3125 166.406C76.0312 166.484 76.7031 166.578 77.3281 166.688C79.2969 167.078 80.8672 167.719 82.0391 168.609C83.2109 169.484 83.7969 170.867 83.7969 172.758C83.7969 174.18 83.3516 175.422 82.4609 176.484C81.5703 177.547 80.3125 178.367 78.6875 178.945C77.0625 179.539 75.1797 179.836 73.0391 179.836ZM73.25 159.211C74.1719 159.211 74.9219 158.969 75.5 158.484C76.0938 158 76.3906 157.266 76.3906 156.281C76.3906 155.297 76.0938 154.562 75.5 154.078C74.9219 153.578 74.1719 153.328 73.25 153.328C72.3281 153.328 71.5703 153.578 70.9766 154.078C70.3984 154.562 70.1094 155.297 70.1094 156.281C70.1094 157.266 70.3984 158 70.9766 158.484C71.5703 158.969 72.3281 159.211 73.25 159.211ZM73.5078 174.961C74.9141 174.961 75.9766 174.781 76.6953 174.422C77.4297 174.062 77.7969 173.562 77.7969 172.922C77.7969 172.484 77.5859 172.133 77.1641 171.867C76.7578 171.617 76.0938 171.406 75.1719 171.234C74.2656 171.078 72.9922 170.945 71.3516 170.836C70.6484 171.086 70.1016 171.414 69.7109 171.82C69.3203 172.227 69.125 172.648 69.125 173.086C69.125 173.68 69.4844 174.141 70.2031 174.469C70.9219 174.797 72.0234 174.961 73.5078 174.961ZM93.1016 171.352C92.0234 171.352 90.9531 171.234 89.8906 171C88.8281 170.766 87.9453 170.43 87.2422 169.992C86.5547 169.555 86.2109 169.055 86.2109 168.492C86.2109 168.148 86.3359 167.719 86.5859 167.203C86.8359 166.688 87.1328 166.242 87.4766 165.867C87.8359 165.477 88.1484 165.281 88.4141 165.281C88.5547 165.281 88.8594 165.391 89.3281 165.609C89.875 165.859 90.3984 166.062 90.8984 166.219C91.3984 166.375 91.9688 166.453 92.6094 166.453C93.4062 166.453 94.0078 166.305 94.4141 166.008C94.8203 165.711 95.0234 165.273 95.0234 164.695C95.0234 164.258 94.8984 163.898 94.6484 163.617C94.4141 163.32 94.1094 163.078 93.7344 162.891C93.3594 162.703 92.8281 162.477 92.1406 162.211L91.4609 161.953C90.5703 161.609 89.7891 161.219 89.1172 160.781C88.4453 160.344 87.875 159.711 87.4062 158.883C86.9375 158.039 86.7031 156.977 86.7031 155.695C86.7031 154.273 87.0078 153.055 87.6172 152.039C88.2422 151.008 89.125 150.227 90.2656 149.695C91.4062 149.148 92.75 148.875 94.2969 148.875C95.1875 148.875 96.1172 148.961 97.0859 149.133C98.0547 149.305 98.8672 149.57 99.5234 149.93C100.195 150.289 100.531 150.742 100.531 151.289C100.531 151.602 100.43 152.023 100.227 152.555C100.039 153.086 99.8047 153.555 99.5234 153.961C99.2422 154.367 98.9766 154.57 98.7266 154.57C98.6484 154.57 98.4297 154.5 98.0703 154.359C97.5859 154.156 97.1172 154 96.6641 153.891C96.2266 153.766 95.7188 153.703 95.1406 153.703C93.6719 153.703 92.9375 154.188 92.9375 155.156C92.9375 155.594 93.0703 155.969 93.3359 156.281C93.6172 156.594 93.9609 156.852 94.3672 157.055C94.7734 157.258 95.3438 157.5 96.0781 157.781C96.9219 158.125 97.4453 158.344 97.6484 158.438C98.7422 158.984 99.6172 159.711 100.273 160.617C100.945 161.508 101.281 162.703 101.281 164.203C101.281 165.625 100.961 166.875 100.32 167.953C99.6797 169.031 98.7422 169.867 97.5078 170.461C96.2734 171.055 94.8047 171.352 93.1016 171.352ZM108.102 171.07C106.445 171.07 105.617 170.633 105.617 169.758V143.086C105.617 142.633 105.812 142.297 106.203 142.078C106.609 141.844 107.242 141.727 108.102 141.727H109.578C110.438 141.727 111.062 141.844 111.453 142.078C111.859 142.297 112.062 142.633 112.062 143.086V153.375H123.312V143.086C123.312 142.633 123.516 142.297 123.922 142.078C124.328 141.844 124.961 141.727 125.82 141.727H127.273C128.945 141.727 129.781 142.18 129.781 143.086V169.758C129.781 170.633 128.945 171.07 127.273 171.07H125.82C124.148 171.07 123.312 170.633 123.312 169.758V158.883H112.062V169.758C112.062 170.633 111.234 171.07 109.578 171.07H108.102ZM141.266 171.352C139.172 171.352 137.625 170.805 136.625 169.711C135.625 168.602 135.125 166.891 135.125 164.578V150.445C135.125 150.008 135.328 149.68 135.734 149.461C136.141 149.242 136.773 149.133 137.633 149.133H138.781C139.641 149.133 140.273 149.242 140.68 149.461C141.086 149.68 141.289 150.008 141.289 150.445V163.641C141.289 164.5 141.484 165.148 141.875 165.586C142.266 166.023 142.906 166.242 143.797 166.242C144.562 166.242 145.227 166 145.789 165.516C146.367 165.016 146.812 164.453 147.125 163.828V150.445C147.125 150.008 147.328 149.68 147.734 149.461C148.141 149.242 148.773 149.133 149.633 149.133H150.781C151.641 149.133 152.273 149.242 152.68 149.461C153.086 149.68 153.289 150.008 153.289 150.445V163.641C153.289 164.953 153.32 165.984 153.383 166.734C153.461 167.469 153.555 168.156 153.664 168.797C153.742 169.219 153.781 169.516 153.781 169.688C153.781 170 153.492 170.258 152.914 170.461C152.336 170.664 151.672 170.812 150.922 170.906C150.188 171 149.594 171.047 149.141 171.047C148.641 171.047 148.281 170.852 148.062 170.461C147.859 170.055 147.695 169.484 147.57 168.75L147.453 168.164C146.797 169.055 145.914 169.812 144.805 170.438C143.711 171.047 142.531 171.352 141.266 171.352ZM170.023 171.352C168.789 171.352 167.68 171.062 166.695 170.484C165.711 169.891 164.969 169.133 164.469 168.211L164.352 168.703C164.211 169.312 164.102 169.742 164.023 169.992C163.914 170.43 163.672 170.719 163.297 170.859C162.922 171 162.367 171.07 161.633 171.07H161.141C159.469 171.07 158.633 170.633 158.633 169.758V140.93C158.633 140.477 158.836 140.141 159.242 139.922C159.648 139.688 160.281 139.57 161.141 139.57H162.289C163.961 139.57 164.797 140.023 164.797 140.93V150.164C165.969 149.305 167.383 148.875 169.039 148.875C170.883 148.875 172.461 149.336 173.773 150.258C175.102 151.164 176.109 152.461 176.797 154.148C177.484 155.836 177.828 157.812 177.828 160.078C177.828 162.438 177.492 164.469 176.82 166.172C176.164 167.859 175.242 169.148 174.055 170.039C172.883 170.914 171.539 171.352 170.023 171.352ZM168.219 166.289C170.453 166.289 171.57 164.219 171.57 160.078C171.57 155.844 170.281 153.727 167.703 153.727C166.75 153.727 165.781 153.992 164.797 154.523V163.828C165.75 165.469 166.891 166.289 168.219 166.289Z" fill="black"/>
<path d="M110.599 86.8175C109.449 86.2787 108.3 85.8476 107.15 85.6321C106.522 85.4166 105.895 85.3088 105.268 85.3088C105.059 85.3088 104.85 85.3088 104.641 85.3088H104.223C104.118 85.3088 103.804 85.3088 103.595 85.3088C102.864 85.3088 102.236 85.4166 101.609 85.5244C100.877 85.6321 100.25 85.8476 99.5184 86.0632C99.2048 86.1709 98.8912 86.2787 98.6821 86.3865C98.473 86.4942 98.2639 86.602 98.1594 86.602C97.3231 87.033 97.0095 87.6796 96.6959 88.6495C97.6367 88.7572 98.2639 88.7572 98.9957 88.4339C99.1002 88.3262 99.2048 88.3262 99.4138 88.2184C99.6229 88.1106 99.9365 88.0029 100.146 87.8951C100.773 87.6796 101.296 87.4641 101.923 87.3563C102.445 87.2486 103.073 87.1408 103.595 87.1408H104.536C104.641 87.1408 104.85 87.1408 105.059 87.1408C105.582 87.1408 106.209 87.2486 106.731 87.3563C107.777 87.5718 108.822 87.8951 109.763 88.3262C110.181 88.4339 110.495 88.5417 110.913 88.5417C111.331 88.5417 111.749 88.5417 112.167 88.7572C111.854 87.7874 111.54 87.2485 110.599 86.8175Z" fill="black"/>
<path d="M158.895 22.0524C158.895 21.7291 158.791 21.2981 158.686 20.9748V20.8671L158.582 20.6515C158.582 20.5438 158.477 20.3282 158.373 20.2205C158.164 20.005 158.059 19.7894 157.85 19.6817C157.641 19.4661 157.327 19.2506 157.014 19.2506C156.909 19.2506 156.7 19.2506 156.491 19.2506H156.282C156.177 19.2506 156.177 19.2506 156.073 19.2506C155.759 19.2506 155.55 19.3584 155.237 19.3584C154.923 19.4661 154.609 19.4661 154.296 19.5739C153.982 19.6817 153.669 19.8972 153.355 20.005C152.101 20.6515 150.951 21.7291 149.905 22.8068C148.86 23.9922 147.815 25.1775 146.665 26.3629C145.515 27.5483 144.26 28.6259 142.901 29.5958C141.542 30.5656 140.183 31.32 138.615 31.8588L138.093 32.0743L136.211 32.7209C135.793 32.9364 135.375 33.0442 135.061 33.2597C134.747 33.4752 134.329 33.583 134.016 33.7985C132.761 34.5528 131.611 35.3072 130.461 36.1693C129.939 36.4926 129.521 36.8159 129.207 37.1391L128.266 37.8935L127.952 38.2168L127.639 38.4323L127.221 38.8633C125.966 40.0487 124.921 41.4496 123.98 42.9583C123.562 43.6049 123.248 44.2514 122.935 45.0058C122.83 45.3291 122.621 45.7601 122.517 46.0834C122.098 45.9756 121.785 45.7601 121.367 45.6524L119.485 44.898C116.767 43.9282 113.944 43.0661 111.122 42.4195C105.372 41.1263 99.4138 40.6953 93.5597 41.0186C92.9325 41.0186 92.3053 41.1263 91.678 41.1263C91.3644 41.1263 91.0508 41.2341 90.7372 41.2341L89.9009 41.3419C89.2737 41.4496 88.751 41.4496 88.2283 41.5574C87.1829 41.7729 86.3466 41.8807 85.824 41.9884C84.1514 42.3117 82.4788 42.7428 80.9107 43.4971C79.9699 43.9282 79.1336 44.467 78.2973 45.0058H78.0882C77.9837 44.467 77.7746 43.9282 77.6701 43.3893C77.0428 41.6652 76.2065 40.0487 75.1612 38.6478C74.6385 38.0012 74.1158 37.3547 73.4886 36.7081C73.0704 36.277 72.6523 35.9538 72.2341 35.5227L71.9205 35.1994C71.816 35.0917 71.6069 34.9839 71.5024 34.8761C71.1887 34.6606 70.9797 34.4451 70.6661 34.2296C70.3524 34.014 70.0388 33.7985 69.7252 33.583C69.4116 33.3675 69.098 33.1519 68.7844 33.0442L68.2617 32.8287C68.0526 32.7209 67.9481 32.7209 67.739 32.6131L65.6483 31.751L64.6029 31.4277C63.9757 31.2122 63.2439 30.9967 62.6167 30.6734C62.3031 30.4579 61.8849 30.3501 61.5713 30.2424L60.6305 29.8113C59.376 29.1647 58.0171 28.4104 56.8671 27.5483C55.7172 26.6862 54.4628 25.7163 53.4174 24.6387C52.2675 23.6689 51.1176 22.4835 49.9677 21.5136C48.8178 20.5438 47.5633 19.5739 46.4134 18.7118C45.2635 17.8497 44.1136 17.0954 42.8592 16.4488C42.2319 16.1255 41.6047 15.8022 40.9775 15.5867C40.3503 15.2634 39.723 15.1557 39.0958 15.0479C38.4686 15.0479 37.8414 14.9401 37.2142 15.0479C36.5869 15.1557 35.9597 15.3712 35.437 15.5867C34.9143 15.91 34.4962 16.2333 34.078 16.5566C33.869 16.7721 33.6599 16.8799 33.5554 17.0954C33.3463 17.3109 33.2417 17.5264 33.1372 17.6342C32.8236 18.0652 32.51 18.604 32.3009 19.1429L32.0918 19.5739C32.0918 19.6817 32.0918 19.6817 32.0918 19.6817C32.0918 19.6817 31.9873 19.8972 31.8828 20.2205C31.6737 20.7593 31.5691 21.2981 31.4646 21.8369C31.2555 22.699 31.151 23.4533 31.0465 24.3154C31.0465 24.531 31.0465 24.8543 31.0465 25.0698C31.0465 25.3931 31.0465 25.7164 31.0465 25.9319C30.9419 26.4707 31.0465 27.1173 31.0465 27.6561C31.151 28.9492 31.4646 30.2424 31.8828 31.5355C32.4054 32.8287 32.9281 34.1218 33.4508 35.4149C34.078 36.7081 34.4962 38.109 35.0189 39.5099C35.2279 40.2642 35.437 40.9108 35.6461 41.6652C35.7506 41.9884 35.8552 42.4195 35.9597 42.7428L36.1688 43.8204C36.3779 44.5747 36.4824 45.3291 36.5869 46.0834L36.6915 46.6222C36.796 46.73 36.796 46.9455 36.796 47.161L36.9005 48.3464L37.1096 49.5318C37.2142 49.9628 37.3187 50.5017 37.3187 50.8249C37.3187 51.1482 37.4232 51.5793 37.5278 52.0103C37.6323 52.3336 37.7368 52.7647 37.8414 53.1957C38.3641 54.8121 38.8868 56.3208 39.6185 57.7217C39.9321 58.4761 40.2457 59.1226 40.6639 59.7692C40.873 60.0925 41.082 60.4158 41.2911 60.7391L41.6047 61.2779L42.0229 61.7089C42.6501 62.6788 43.3819 63.6486 44.2181 64.6185C44.9499 65.4806 45.4726 66.0194 45.8907 66.4505C47.0407 67.7436 48.3996 68.8212 49.8632 69.7911C50.2813 70.0066 50.804 70.3299 51.2221 70.5454C50.6995 71.7308 50.2813 73.1317 49.8632 74.4249C49.445 76.149 49.1314 77.8732 49.0269 79.5974C49.0269 80.244 48.9223 81.4294 48.8178 83.8002C48.7132 85.8476 48.6087 89.296 48.8178 92.2056C48.9223 93.7143 49.0269 95.0074 49.1314 95.9773C49.1314 96.5161 49.2359 96.9471 49.2359 97.1627V97.5937C49.2359 97.5937 49.3405 98.0248 49.445 98.8869C49.5495 99.749 49.7586 100.827 49.9677 102.12C50.1768 103.413 50.3858 104.706 50.804 106.107C51.2221 107.4 51.6403 108.693 52.0584 109.771C52.5811 110.956 53.1038 112.142 53.731 113.327C53.9401 113.758 54.1492 114.189 54.3583 114.512L54.8809 115.374C55.8218 116.883 56.9717 118.284 58.3307 119.362C59.0624 120.008 59.8987 120.547 60.735 120.978C60.9441 121.301 61.0486 121.625 61.2577 121.948C61.6759 122.595 62.094 123.133 62.6167 123.672C63.1394 124.211 63.6621 124.642 64.2893 125.073C64.812 125.396 65.4392 125.827 66.0664 126.151C68.5753 127.444 71.1887 128.09 73.8022 128.306C76.3111 128.629 78.82 128.629 81.3289 128.306C82.5833 128.198 83.7332 127.983 84.8831 127.659C85.5103 127.552 86.033 127.336 86.5557 127.228C87.0784 127.013 87.6011 126.905 88.1238 126.69C89.0646 126.366 90.0054 125.935 90.9463 125.504C92.4098 127.228 94.1869 128.521 96.2777 129.384C96.4867 129.491 96.8004 129.599 97.323 129.815C97.5321 129.922 97.8457 130.03 98.1593 130.138C98.473 130.246 98.8911 130.353 99.3093 130.461C99.7274 130.569 100.146 130.677 100.668 130.784C100.982 130.784 101.295 130.892 101.505 130.892H102.341L103.073 131C103.282 131 103.491 131 103.7 131H104.745C105.059 131 105.477 131 105.895 131C106.836 131 107.777 130.892 108.718 130.677L109.554 130.461C109.763 130.353 110.077 130.246 110.286 130.246L111.017 130.03L111.645 129.815C111.958 129.707 112.376 129.599 112.585 129.491L113.213 129.168C113.631 128.953 113.944 128.845 114.258 128.629C114.572 128.414 114.885 128.198 115.199 128.09C115.722 127.767 116.14 127.444 116.662 127.013C117.081 126.69 117.499 126.258 117.917 125.827C118.126 125.612 118.23 125.396 118.44 125.181C119.799 125.935 121.367 126.474 122.83 126.905C125.234 127.659 127.743 128.198 130.252 128.306C132.866 128.521 135.584 128.198 138.197 127.444C139.452 127.013 140.811 126.366 141.96 125.612C143.215 124.858 144.26 123.78 145.097 122.595C145.515 121.948 145.828 121.301 146.142 120.655C146.769 119.362 147.083 117.961 147.187 116.452C147.187 115.698 147.187 115.051 147.187 114.297C147.187 113.974 147.083 113.543 147.083 113.219V112.68L146.978 112.142C146.874 111.711 146.874 111.387 146.769 111.064C146.665 110.741 146.56 110.417 146.456 110.094C146.351 109.986 146.351 109.771 146.246 109.663L145.828 108.801C145.724 108.693 145.724 108.478 145.619 108.37C145.515 108.047 145.306 107.723 145.201 107.4L144.678 106.538C143.947 105.353 143.215 104.383 142.274 103.413C142.065 103.09 141.751 102.874 141.542 102.659C142.379 101.689 143.11 100.719 143.738 99.749C144.678 98.2403 145.41 96.6239 145.828 94.8997C146.456 92.8522 146.874 90.8047 147.083 88.7572C147.083 88.3262 147.187 87.7874 147.187 87.3563C147.187 86.8175 147.292 86.3864 147.292 85.8476C147.396 84.8778 147.396 83.8002 147.396 82.7225C147.396 80.4595 147.187 78.1965 146.874 75.9335C146.456 73.7783 145.933 71.623 145.201 69.5756C145.515 69.2523 145.828 69.0367 146.142 68.8212C146.769 68.2824 147.292 67.7436 147.815 67.097C148.964 65.6961 149.801 64.1874 150.532 62.571C150.951 61.6012 151.682 59.7692 152.728 56.7519C153.669 53.95 154.714 50.6094 155.55 47.0533C156.491 43.4971 157.223 39.8332 157.746 36.4926C158.268 33.0442 158.686 30.0268 158.791 27.8716C158.895 26.6862 158.895 25.3931 159 24.2077V23.7766C159 23.5611 159 23.2378 159 22.8068C159 22.5912 158.895 22.3757 158.895 22.0524ZM127.116 78.3043C130.252 78.3043 132.866 80.9983 132.866 84.2312C132.866 87.4641 130.252 90.1581 127.116 90.1581C123.875 90.1581 121.367 87.5718 121.367 84.2312C121.367 80.9983 123.98 78.3043 127.116 78.3043ZM79.5517 77.4422C83.2105 77.4422 86.2421 80.4595 86.2421 84.339C86.2421 88.1106 83.3151 91.2357 79.5517 91.2357C75.8929 91.2357 72.8613 88.1106 72.8613 84.339C72.8613 80.5673 75.7884 77.4422 79.5517 77.4422ZM60.526 61.0623C60.3169 61.3856 60.1078 61.6012 60.0033 61.8167L59.5851 62.4633L58.8534 63.5409C58.4352 64.1874 58.0171 64.7263 57.808 65.0495C57.0762 66.0194 56.3445 67.2048 55.7172 68.2824C55.09 69.36 54.6719 70.3299 54.0446 71.5153L53.9401 71.4075C53.4174 70.7609 52.8947 70.2221 52.4766 69.6833L51.0131 67.9591C50.0722 66.8815 49.0269 65.6961 47.6679 64.2952C47.3543 63.8642 46.8316 63.3254 46.2044 62.571C45.4726 61.6012 44.7408 60.7391 44.1136 59.7692L43.9045 59.4459L43.5909 59.0149C43.3819 58.7993 43.2773 58.4761 43.0682 58.1528C42.6501 57.614 42.3365 56.9674 42.0229 56.3208C41.3956 55.0277 40.873 53.6268 40.4548 52.2258C40.3503 51.9026 40.2457 51.4715 40.1412 51.1482C40.0367 50.8249 40.0367 50.3939 39.9321 50.0706C39.8276 49.7473 39.723 49.3163 39.723 48.993L39.3049 46.6222C39.2004 46.4067 39.2004 46.1912 39.2004 45.9756L39.0958 45.3291C38.8868 44.5747 38.7822 43.7126 38.5731 42.9583L38.3641 41.9884C38.3641 41.7729 38.2595 41.4496 38.2595 41.1263C38.155 40.2642 37.8414 38.5401 37.4232 36.4926C37.2142 35.1994 36.9005 33.9063 36.6915 32.6131C36.3779 31.32 36.1688 29.9191 35.9597 28.5182C35.7506 27.225 35.6461 25.8241 35.6461 24.4232C35.6461 23.7766 35.7506 23.1301 35.9597 22.5912V22.4835L36.0642 22.3757C36.1688 22.268 36.1688 22.1602 36.2733 22.0524C36.3779 22.0524 36.3779 22.0524 36.3779 22.0524H36.4824C36.6915 21.9447 37.0051 22.0524 37.2142 22.0524C37.5278 22.1602 37.8414 22.1602 38.155 22.268C38.7822 22.4835 39.3049 22.8068 39.9321 23.0223C41.082 23.5611 42.2319 24.2077 43.2773 24.8543C45.159 26.0396 47.0407 27.3328 48.8178 28.7337C50.4904 29.9191 51.7448 30.8889 52.5811 31.6433C53.4174 32.3976 53.9401 32.8287 53.9401 32.8287C53.9401 32.8287 54.4628 33.2597 55.2991 34.014C56.1354 34.7684 57.3898 35.846 58.7488 37.2469C60.1078 38.6478 61.6759 40.372 63.3485 42.3117C65.0211 44.3592 66.5891 46.5145 68.0526 48.7775C68.3662 49.424 68.7844 49.9628 69.098 50.6094C69.2025 50.7172 69.2025 50.9327 69.3071 51.0405L69.5161 51.4715H69.4116C69.098 51.687 68.7844 51.7948 68.4708 52.0103C67.8436 52.3336 67.2163 52.7647 66.5891 53.1957C65.9619 53.6268 65.4392 54.1656 64.9165 54.7044C64.7074 55.0277 64.3938 55.2432 64.1848 55.5665L63.8711 55.9975C63.7666 56.1053 63.6621 56.3208 63.5575 56.4286C63.3485 56.7519 63.1394 56.9674 62.9303 57.2907C62.7212 57.614 62.6167 57.8295 62.4076 58.1528C62.1985 58.4761 62.094 58.5838 61.9895 58.6916C61.7804 59.0149 61.5713 59.3382 61.4668 59.5537C61.1532 60.0925 60.8396 60.5235 60.526 61.0623ZM117.185 124.965C116.662 125.181 116.14 125.396 115.617 125.612C115.094 125.827 114.572 126.151 114.049 126.366C113.84 126.582 113.526 126.69 113.213 126.797C112.899 127.013 112.585 127.121 112.272 127.228L111.645 127.444C111.331 127.552 111.017 127.659 110.704 127.767L110.181 127.983L109.554 128.198C109.345 128.306 109.031 128.414 108.822 128.414L108.09 128.521C107.254 128.629 106.418 128.845 105.581 128.845C105.163 128.845 104.745 128.845 104.536 128.845H103.595C103.491 128.845 103.282 128.845 103.073 128.845H101.818C101.609 128.845 101.295 128.737 101.086 128.737C100.564 128.629 100.146 128.629 99.8319 128.521C99.4138 128.414 99.1002 128.306 98.7866 128.198C98.473 128.09 98.1593 128.09 97.9503 127.983C97.5321 127.875 97.2185 127.767 97.0094 127.659C95.6504 127.121 94.6051 126.69 93.5597 126.258C92.9325 125.935 92.3053 125.72 91.5735 125.396C92.3053 125.073 93.037 124.642 93.7688 124.211C96.3822 122.595 98.7866 120.655 100.982 118.5C101.818 117.745 102.341 117.099 102.759 116.668L103.386 116.021L103.491 115.806L103.7 115.59C103.7 115.482 103.7 115.374 103.804 115.374C103.909 115.267 104.118 115.159 104.327 115.051C104.641 115.051 104.85 114.943 105.163 115.051C105.268 115.159 105.477 115.159 105.581 115.267C105.686 115.374 105.686 115.482 105.791 115.482C105.895 115.482 105.895 115.59 106 115.698C106.418 116.237 106.836 116.775 107.359 117.314C108.509 118.607 109.763 119.793 111.017 120.655C113.004 122.271 115.303 123.672 117.603 124.75L117.185 124.965ZM143.424 107.4L143.842 108.154C143.947 108.478 144.156 108.801 144.26 109.017C144.365 109.232 144.469 109.34 144.469 109.448L144.887 110.31C144.887 110.417 144.992 110.633 144.992 110.741C145.097 111.064 145.201 111.28 145.306 111.603C145.41 111.818 145.41 112.142 145.515 112.465L145.619 112.896V113.327C145.724 113.65 145.724 113.974 145.724 114.297C145.828 114.943 145.828 115.482 145.724 116.129C145.619 116.775 145.515 117.314 145.41 117.961C145.201 118.5 144.992 119.146 144.783 119.685C144.051 121.409 142.901 122.81 141.333 123.78C140.288 124.427 139.138 124.965 137.988 125.289C135.584 125.935 133.075 126.258 130.67 126.043C128.266 125.827 125.966 125.504 123.666 124.75C119.694 123.564 115.931 121.625 112.69 119.038C111.436 118.069 110.181 116.883 109.136 115.698C108.613 115.159 108.195 114.728 107.777 114.189C107.672 114.081 107.463 113.866 107.359 113.758C107.15 113.543 107.045 113.435 106.836 113.327C106.522 113.004 106.209 112.896 105.791 112.788C105.581 112.68 105.372 112.68 105.268 112.68C105.791 112.142 106.209 111.495 106.418 110.741C106.627 110.094 106.731 109.448 106.836 108.801C106.836 108.478 106.836 108.047 106.836 107.723L107.15 107.616C107.881 107.4 108.509 107.185 109.24 106.861C110.077 106.538 110.808 105.999 111.436 105.46C112.167 104.814 112.795 104.059 113.317 103.197C113.735 102.443 114.154 101.689 114.467 100.827C114.572 100.719 114.572 100.719 114.572 100.611V100.503L114.676 100.288C114.781 99.9645 114.885 99.6412 114.885 99.4257L114.99 99.1024V98.9946L114.885 98.8869C114.676 98.7791 114.572 98.6713 114.467 98.5636L114.258 98.3481L113.84 98.1325L113.735 98.0248C113.631 97.917 113.422 97.8092 113.317 97.7015C113.004 97.486 112.69 97.2704 112.481 97.1627C111.958 96.8394 111.645 96.6239 111.331 96.5161C111.017 96.3006 110.808 96.1928 110.704 96.1928L110.495 96.085C110.495 96.085 110.39 96.0851 110.181 95.9773C109.972 95.8695 109.658 95.7618 109.24 95.654C108.195 95.223 107.045 95.0074 106 94.8997C104.641 94.7919 103.177 94.8997 101.818 95.223C100.564 95.5462 99.3092 96.1928 98.2639 96.9471L97.8457 97.1627L97.5321 97.486C97.323 97.7015 97.114 97.8092 96.9049 98.0248L96.4867 98.4558C96.3822 98.5636 96.1731 98.7791 96.0686 98.8869V99.1024C96.1731 99.2102 96.1731 99.3179 96.1731 99.4257C96.1731 99.6412 96.2777 99.749 96.2777 99.9645L96.3822 100.288C96.3822 100.396 96.4867 100.396 96.4867 100.503C96.5913 100.611 96.5913 100.827 96.6958 100.934C96.8004 101.258 96.9049 101.473 97.0094 101.689C97.4276 102.443 97.8457 103.09 98.3684 103.628C98.5775 103.952 98.8911 104.167 99.1002 104.383C99.4138 104.598 99.7274 104.814 99.9365 104.922C100.877 105.46 101.923 105.784 102.968 105.891C103.491 106.107 104.013 106.322 104.641 106.43V106.538C104.745 106.754 104.745 106.861 104.745 107.077V107.292C104.745 107.4 104.745 107.4 104.745 107.508C104.745 107.831 104.745 108.154 104.745 108.478C104.745 109.124 104.745 109.663 104.745 110.202C104.641 110.956 104.536 111.711 104.327 112.465C103.595 112.573 102.864 112.896 102.341 113.435C102.236 113.543 102.132 113.65 102.027 113.758L101.818 113.974C101.714 114.081 101.714 114.081 101.714 114.081L101.191 114.728C100.773 115.159 100.25 115.698 99.5183 116.452C97.5321 118.607 95.2323 120.332 92.7234 121.84C91.0508 122.81 89.3782 123.672 87.4965 124.319C86.9739 124.534 86.5557 124.75 86.033 124.858C85.5103 124.965 84.9877 125.181 84.465 125.289C83.3151 125.612 82.2697 125.827 81.1198 125.935C78.7154 126.258 76.4156 126.258 74.0112 125.935C71.6069 125.72 69.2025 125.073 67.0073 123.995C66.4846 123.672 65.9619 123.349 65.4392 123.026C65.021 122.702 64.4984 122.271 64.0802 121.84C63.6621 121.409 63.2439 120.978 62.9303 120.439C62.6167 119.9 62.3031 119.362 62.094 118.823C61.6759 117.745 61.4668 116.452 61.4668 115.267C61.4668 113.974 61.6759 112.788 61.9895 111.603C62.8258 109.232 63.9757 107.077 65.6483 105.245C66.38 104.275 67.2163 103.413 68.1572 102.659C68.5753 102.335 69.098 101.904 69.5161 101.581C69.8298 101.365 70.0388 101.15 70.2479 101.042L70.5615 100.827L70.7706 100.719H70.8751C72.025 99.9645 73.2795 99.2102 74.6385 98.5636C75.9975 97.917 77.0428 97.3782 77.9837 96.8394C81.3289 95.3307 86.033 93.391 87.1829 92.7444C89.3782 91.8823 91.469 90.8047 93.5597 89.6193C100.564 75.9335 97.7412 49.7473 96.9049 43.4971C98.473 43.4971 100.041 43.6049 101.714 43.7126C104.536 43.9282 107.463 44.3592 110.286 45.0058C111.54 45.3291 112.795 45.6524 114.049 45.9756C113.004 51.0405 109.763 70.0066 114.363 89.7271C115.513 90.3737 119.799 91.7746 126.907 95.1152C127.116 95.223 127.325 95.3307 127.534 95.4385C128.371 95.9773 129.416 96.5161 130.566 97.1627C130.984 97.3782 131.507 97.7015 132.134 98.0248C132.448 98.2403 132.761 98.4558 133.179 98.6713L133.388 98.7791L134.329 99.4257C134.747 99.6412 135.27 99.9645 135.688 100.288C136.106 100.611 136.629 100.934 137.047 101.258C137.57 101.581 137.988 102.012 138.406 102.335C138.615 102.443 138.824 102.659 139.033 102.874C139.242 102.982 139.452 103.197 139.661 103.413C140.079 103.844 140.497 104.275 141.229 104.598C142.065 105.46 142.797 106.43 143.424 107.4ZM156.282 23.9922L156.177 24.531C156.177 24.531 156.177 24.8543 156.177 25.3931C156.177 25.9319 156.177 26.794 156.073 27.8716C155.968 29.9191 155.55 32.8287 155.028 36.1693C154.505 39.4021 153.773 43.0661 152.937 46.5145C152.101 49.9628 151.16 53.3035 150.219 55.9975C149.278 58.9071 148.546 60.7391 148.128 61.6012C147.396 63.4331 146.769 64.834 146.246 66.2349C145.933 66.8815 145.619 67.5281 145.306 68.1746C145.201 68.3902 145.097 68.6057 144.992 68.8212C144.156 66.7737 143.215 64.7263 142.17 62.8943C141.856 62.4633 141.647 61.9244 141.333 61.4934L140.497 60.2003C140.392 59.9847 140.183 59.7692 140.079 59.5537L139.661 59.0149L138.72 57.9372C138.093 57.1829 137.465 56.6441 136.943 55.9975L135.27 54.4889C134.852 54.0578 134.329 53.6268 133.911 53.3035L133.284 52.8724C134.747 51.3637 136.002 49.7473 137.047 47.9154L138.72 45.2213C139.556 43.7126 141.02 41.3419 142.379 39.4021C143.738 37.4624 144.783 35.846 144.783 35.846C144.783 35.846 145.724 34.5528 146.978 32.8287C148.233 31.1045 149.801 29.057 150.951 27.7638C151.891 26.5784 152.937 25.6086 154.087 24.6387C154.505 24.3154 155.028 23.9922 155.55 23.7766C155.655 23.6689 155.864 23.6689 155.968 23.6689C156.073 23.6689 156.177 23.6689 156.282 23.7766C156.282 23.7766 156.282 23.8844 156.282 23.9922Z" fill="black"/>
</svg>
